# Blender 4.1.1
# www.blender.org
o Cylinder.001
v 0.000000 -0.109674 -2.216593
v 0.000000 1.593557 -1.579605
v 1.919626 -0.109674 -1.108296
v 1.367978 1.593557 -0.789803
v 1.919626 -0.109674 1.108296
v 1.367978 1.593557 0.789803
v 0.000000 -0.109674 2.216593
v 0.000000 1.593557 1.579605
v -1.919626 -0.109674 1.108296
v -1.367978 1.593557 0.789803
v -1.919626 -0.109674 -1.108296
v -1.367978 1.593557 -0.789803


s 0
f 1 2 4 3
f 3 4 6 5
f 5 6 8 7
f 7 8 10 9
f 2 10 6
f 9 10 12 11
f 11 12 2 1
f 3 7 11
f 6 4 2
f 2 12 10
f 10 8 6
f 11 1 3
f 3 5 7
f 7 9 11

