# WaveFront *.obj file (generated by Cinema 4D)

v -6.267085 2.993323 -78.495171
v -16.932918 32.229328 5.612910
v 25.778565 12.148193 -15.642623
v 16.205383 6.572499 -56.618565
v 69.780838 0.003760 -15.957686
v -23.742243 5.886294 -25.240906
v -49.721172 9.090976 58.666637
v 62.050713 -5.572858 -12.158727
v -34.451672 2.599183 32.289177
v -52.613190 9.053502 -2.563603
v 25.563890 19.785194 -12.666552
v -19.713203 -5.122663 -21.978121
v -13.191910 4.182023 -72.119865
v -32.638000 10.462825 -39.419544
v -62.452335 -5.706218 8.674156
v 54.623146 8.127185 39.318199
v 44.639942 0.205867 62.240780
v -29.176825 12.517807 -20.128849
v -26.636770 16.974531 -21.589092
v 5.416381 -2.233263 79.776184
v 30.233965 -4.644254 -34.951862
v 44.647453 -0.409655 45.912392
v 10.092188 -5.514878 -70.476341
v 41.954201 6.893995 32.409416
v -53.096054 -5.446222 -2.362171
v -11.654222 7.993662 72.834595
v -58.710113 8.290961 -43.738709
v -64.542061 8.977767 -6.377931
v -27.377768 4.814562 10.077934
v -35.080952 1.581414 -8.876600
v -1.077555 9.640809 72.189873
v -0.046834 4.252738 63.735859
v -5.751770 27.369183 -48.560944
v 0.469679 -2.257001 -63.119396
v -62.479519 1.600828 -0.449894
v -11.614725 32.292210 13.669058
v 54.982731 7.005247 55.942051
v -41.648903 -5.540619 -56.233173
v -55.191036 -2.079033 25.189985
v -46.244186 3.343991 -23.210486
v -39.959328 -0.365999 -60.376595
v -18.910261 15.602043 -42.608044
v 25.114304 9.129003 -8.578615
v -29.583857 -4.946230 44.871662
v -65.408318 5.788981 3.565927
v -75.523415 8.483186 4.914042
v 54.964661 10.664633 -44.149040
v -14.654118 -5.164024 -61.452053
v -13.247440 -5.039992 -35.420338
v 39.930614 -5.264924 33.746704
v -9.777975 40.261074 -9.266448
v -23.421043 -5.222645 9.133889
v -40.555172 -5.191834 4.946387
v -37.001091 10.144910 -53.428066
v -6.065912 42.325645 -30.257259
v -22.704851 11.414647 -5.347540
v 54.947006 3.786985 -56.334179
v -59.081631 8.174473 9.835442
v 62.177666 9.042998 14.018547
v 50.979351 -4.429468 -7.619383
v -32.580704 0.311914 10.386736
v 50.371674 -5.437031 -29.407824
v 11.519590 9.926040 -69.687134
v -1.024000 -2.910684 64.563667
v -40.552517 9.426624 3.602282
v -16.527363 14.588939 10.043577
v 9.225981 8.641246 39.658646
v -57.223862 1.418922 -33.825348
v -58.909138 3.813425 31.444654
v 17.818520 14.609488 7.049461
v -33.839638 10.292697 -0.725441
v -43.765774 -5.525956 -35.021252
v -57.673084 -1.968901 16.369146
v 40.107113 -4.790275 47.048855
v 16.795059 -5.490641 23.879280
v 48.628361 -5.825364 -55.140926
v 2.215482 -5.459832 -38.213089
v 3.385575 22.733955 -49.055756
v 39.069080 9.045381 57.816544
v 7.687142 -1.170084 -41.793205
v -19.056135 -1.933716 29.921068
v 10.626779 0.205596 51.983387
v -40.759010 8.083778 -17.070286
v 50.820850 6.943848 -5.258328
v 43.816383 9.461918 -57.151092
v 10.953217 7.850145 60.277424
v 24.681627 29.791016 -20.388428
v 12.467773 39.654617 -31.819782
v -75.224655 -5.579870 -2.523133
v 25.718744 13.058156 -26.224554
v 18.617311 27.791866 -41.795036
v -44.447491 10.477742 24.448969
v 0.409290 2.465204 -62.426724
v 58.528351 -1.105747 54.868954
v 57.984894 1.455621 -30.707352
v -5.270358 2.932996 79.536354
v 52.857231 -5.835381 8.702573
v 25.043268 -5.460805 -8.087234
v 34.979282 -5.376113 -38.364063
v 4.134833 36.834377 2.489519
v 1.011194 -0.890878 33.587833
v 18.750422 11.668247 -41.404705
v -40.330990 9.436915 28.605660
v -10.991281 8.983508 51.870449
v 16.118425 -1.450703 -68.832893
v -27.066263 1.770864 46.447979
v 21.580999 -3.255368 23.632791
v -10.307524 -1.852883 46.018276
v -31.885040 11.052972 18.106770
v -39.192532 -4.722219 -6.687818
v -60.402180 6.834701 48.458260
v 16.792152 -1.236282 -53.622948
v 72.364395 10.476886 4.060536
v -17.601509 3.270337 59.186089
v -40.564507 -1.463745 62.682301
v -64.425148 -3.594743 -2.230493
v -79.605843 0.661651 -3.096001
v 33.470787 -5.544353 -52.130997
v 19.928255 -0.137622 41.317280
v 4.379022 -5.368871 -57.978684
v 52.108391 -6.089035 54.374828
v -71.227333 8.949082 -10.538661
v -10.069823 -0.860865 -51.018833
v -2.315539 8.151577 56.534183
v 6.024683 10.255089 -47.575974
v -45.261547 -1.096425 16.730856
v -10.165418 16.398546 18.300427
v 8.478426 -5.999331 59.970558
v 25.261240 -5.475238 6.217049
v -8.127874 0.917616 25.446127
v -12.822014 8.378045 -60.220745
v 18.750963 -4.966736 37.147858
v -25.939209 14.488080 -14.814180
v -21.571642 35.019867 -24.429716
v -12.040291 -4.686858 -71.604874
v -0.032226 10.332038 -48.773998
v -44.922111 -4.753230 60.935356
v 14.164349 38.664368 -10.172115
v -61.544346 0.424965 -43.499058
v -59.091213 -3.920753 -16.804565
v 27.769766 -0.876974 47.030399
v -22.579554 9.567020 26.824600
v 52.797008 2.566254 14.427698
v -13.273200 4.433270 -41.989212
v 4.105608 6.830525 -64.688240
v -27.822123 3.155048 -46.913261
v -44.112179 -5.467555 38.150047
v 28.279709 4.760506 43.391941
v -57.985931 -1.304382 56.471706
v 38.592033 -4.622323 0.097181
v -28.877239 -0.309259 -27.273804
v -56.457241 -4.332073 -55.452026
v 8.478911 5.706003 -45.083866
v -21.567474 7.365514 -34.260140
v 43.250206 -2.299183 30.743841
v 72.809029 7.890411 -10.894034
v 34.159969 -0.842329 5.614325
v 58.167511 1.818413 -15.719122
v 30.807203 -5.445077 -18.675289
v -35.613609 8.102880 41.162418
v 63.498821 -2.941569 -0.520416
v 4.800396 -5.349874 34.992966
v -49.042698 1.792474 5.276610
v -36.650539 -5.086600 29.912916
v -14.638254 -4.359769 69.056152
v 36.448517 10.497027 15.048248
v 42.983257 9.518880 -4.809001
v 60.468559 -3.372806 -46.946129
v -47.783195 9.135069 -51.019024
v 27.764334 8.778250 4.295084
v -69.804649 4.344206 15.075439
v 27.630453 -0.688490 -48.290321
v -36.330719 -5.963806 -24.262838
v 44.743565 1.311854 -22.615517
v 12.001561 -5.227679 71.189560
v 38.972584 -4.450183 12.118813
v 36.093880 9.851808 42.610725
v -39.677925 -5.470182 18.451653
v 40.903736 8.162231 -37.992737
v -0.100569 -4.227654 -78.522888
v -44.534802 -0.723642 45.830269
v 34.185867 3.618525 -14.962957
v 7.647716 -1.289744 -78.705734
v 54.442245 -1.971311 33.317898
v -44.603516 -3.652807 -20.516350
v 11.664434 16.539387 17.227362
v -6.758185 -5.451342 20.147787
v 6.456871 11.112495 29.697699
v -40.062836 -5.318705 49.571766
v -55.172581 10.629193 46.310966
v 11.834960 6.527368 71.854446
v 31.950834 4.480512 -36.471481
v 29.664566 8.588046 22.421930
v 25.239864 0.895592 23.459118
v 16.453339 -5.245616 -29.536667
v 56.957508 7.889862 2.268971
v 40.284679 0.962050 -61.744171
v -44.342220 6.804114 -31.514662
v -44.689663 2.436557 -44.902306
v 18.200115 28.976343 0.039569
v -33.316975 7.100573 54.143043
v -59.120220 -5.621635 46.619484
v 43.616261 -0.282891 20.302671
v -0.590551 29.262579 13.089035
v -16.453077 22.248673 13.956329
v 39.850620 5.400359 1.468172
v -3.295698 9.497037 -74.396812
v 77.991837 3.333504 7.492990
v 44.273632 -2.303971 -44.986103
v 44.237167 4.244048 -45.118507
v -25.811323 -5.461873 -7.077578
v 56.282230 -5.747462 41.637924
v -46.590168 -3.171930 -44.594357
v -54.818714 8.662379 -13.874494
v 10.622611 32.571274 -43.801071
v -20.907999 28.145918 -37.937225
v 32.277393 -2.060661 56.585556
v 35.610050 11.003239 -30.017540
v -39.701710 11.374591 -27.958832
v 19.071152 29.190781 8.116643
v -75.859192 -4.130200 9.365417
v 15.444337 0.555206 60.012341
v -56.943027 -5.125715 -36.827076
v -45.356243 1.527484 45.982658
v -28.507442 -3.527086 -46.396076
v 10.156761 31.845562 14.484567
v -9.194220 -5.582123 72.584312
v -36.649754 -5.747323 -44.913834
v 23.671076 8.491921 -30.598444
v -0.027572 -5.354003 56.290581
v -69.786140 -4.643251 -13.707817
v 67.965340 -4.895594 14.531486
v -35.863743 -4.990005 36.300316
v -36.297173 5.752838 -6.484871
v 61.135674 2.286046 44.405384
v -19.176277 27.759323 -0.619805
v 12.725065 -5.409114 -55.346127
v 29.403320 -5.197202 23.322744
v 19.798281 5.904239 30.545889
v 44.612991 3.128229 45.759720
v 63.012955 3.160412 -0.574571
v -14.679350 -4.829608 54.815613
v 77.964485 -4.420240 -3.747171
v -41.039062 7.749356 -40.841061
v 49.268242 10.291798 -32.087200
v 32.249580 8.137497 -46.203552
v -42.281387 6.638432 50.267090
v -47.662071 6.677182 40.335285
v -49.205193 8.810074 -57.129188
v 34.400974 -1.896772 -15.707357
v 35.159866 -5.462861 57.177551
# 251 vertices

o Default
usemtl Default
f 3 11 43
f 153 112 4
f 50 155 212
f 71 56 234
f 112 105 4
f 24 16 184
f 188 127 130
f 187 98 75
f 103 9 81
f 31 124 26
f 241 156 196
f 162 108 101
f 200 11 87
f 183 105 23
f 250 159 62
f 175 64 128
f 171 73 58
f 220 70 200
f 61 53 52
f 147 233 189
f 7 247 190
f 120 34 23
f 97 150 60
f 6 151 18
f 126 29 61
f 30 185 211
f 105 237 23
f 134 55 216
f 66 205 236
f 88 87 91
f 162 75 132
f 57 76 197
f 55 134 51
f 187 211 98
f 66 109 127
f 70 186 166
f 146 54 14
f 133 83 56
f 236 56 66
f 41 249 54
f 85 197 172
f 137 7 149
f 12 6 154
f 155 50 203
f 215 88 91
f 120 49 123
f 103 109 92
f 17 121 94
f 111 7 190
f 234 110 140
f 189 137 202
f 90 11 3
f 106 9 160
f 202 178 147
f 99 21 172
f 237 112 80
f 236 205 2
f 238 194 107
f 208 59 232
f 161 97 8
f 136 78 125
f 124 82 67
f 102 80 153
f 100 138 55
f 121 212 94
f 106 44 9
f 56 83 30
f 200 87 138
f 86 124 32
f 130 101 188
f 203 176 166
f 12 49 77
f 230 132 119
f 213 223 152
f 250 98 159
f 250 62 174
f 90 218 192
f 69 39 202
f 70 43 11
f 163 73 25
f 84 182 167
f 100 55 51
f 194 148 193
f 195 229 21
f 15 89 116
f 33 78 136
f 207 1 13
f 154 144 49
f 87 90 91
f 121 74 22
f 44 233 9
f 170 43 70
f 87 11 90
f 20 227 175
f 109 126 92
f 117 89 221
f 123 136 131
f 142 130 127
f 1 183 180
f 114 242 165
f 76 57 168
f 53 163 25
f 111 202 149
f 211 77 195
f 217 17 79
f 119 107 239
f 94 37 17
f 247 160 224
f 67 119 239
f 4 125 153
f 64 175 227
f 99 76 62
f 190 247 224
f 99 118 209
f 40 198 68
f 68 139 223
f 133 236 19
f 176 129 157
f 102 229 195
f 170 166 157
f 112 237 105
f 131 13 48
f 222 82 86
f 65 163 61
f 245 174 95
f 29 109 66
f 227 96 165
f 165 96 26
f 128 230 82
f 56 30 234
f 205 36 2
f 158 60 84
f 232 97 161
f 203 24 155
f 72 228 173
f 50 74 238
f 116 89 231
f 198 40 219
f 134 216 19
f 206 143 59
f 88 215 55
f 47 95 168
f 29 126 109
f 5 158 156
f 38 152 41
f 163 58 73
f 215 91 78
f 64 230 128
f 6 18 19
f 30 211 110
f 58 10 45
f 130 81 187
f 111 69 202
f 1 207 183
f 179 218 245
f 29 66 56
f 233 164 9
f 132 107 119
f 79 177 148
f 212 22 74
f 81 9 164
f 108 104 101
f 71 29 56
f 248 92 190
f 178 61 52
f 212 184 235
f 80 102 195
f 32 31 86
f 125 102 153
f 195 21 159
f 204 186 226
f 159 211 195
f 50 176 203
f 172 197 118
f 126 61 178
f 92 9 103
f 112 153 80
f 102 125 91
f 21 99 62
f 242 162 230
f 192 246 172
f 129 176 238
f 211 159 98
f 206 59 167
f 236 51 134
f 48 13 135
f 218 3 182
f 166 170 70
f 10 71 214
f 37 94 235
f 122 117 46
f 215 78 33
f 149 7 111
f 58 45 46
f 33 42 216
f 19 236 134
f 207 131 93
f 6 19 154
f 137 149 202
f 2 51 236
f 131 136 93
f 238 107 129
f 183 23 180
f 204 127 188
f 131 207 13
f 49 12 154
f 224 248 190
f 17 217 251
f 219 244 198
f 244 219 14
f 70 220 186
f 196 167 59
f 184 212 155
f 105 63 4
f 100 226 220
f 234 214 71
f 170 157 206
f 28 122 45
f 10 163 65
f 38 41 225
f 85 47 57
f 84 167 196
f 3 218 90
f 45 122 46
f 151 225 146
f 210 246 179
f 79 37 240
f 114 104 108
f 177 193 148
f 92 39 69
f 204 188 186
f 121 17 251
f 8 158 5
f 46 117 171
f 116 140 25
f 238 141 148
f 97 60 8
f 100 200 138
f 50 238 176
f 139 152 223
f 45 35 28
f 67 82 119
f 92 126 39
f 165 242 227
f 67 104 124
f 218 182 245
f 139 68 27
f 121 22 212
f 98 60 150
f 213 228 72
f 42 33 136
f 20 191 96
f 198 244 199
f 127 36 205
f 188 101 67
f 221 73 171
f 249 152 27
f 82 230 119
f 245 95 47
f 211 52 110
f 38 213 152
f 25 140 110
f 116 231 140
f 180 135 1
f 90 192 229
f 124 86 82
f 37 16 240
f 29 71 65
f 222 191 175
f 76 209 118
f 14 151 146
f 200 100 220
f 18 83 133
f 214 140 122
f 211 185 173
f 73 15 25
f 210 47 85
f 232 143 97
f 154 19 216
f 150 206 157
f 219 40 83
f 187 162 101
f 71 10 65
f 75 107 132
f 53 25 110
f 89 117 231
f 243 208 232
f 54 249 169
f 162 132 230
f 104 114 26
f 83 40 30
f 110 52 53
f 231 122 140
f 113 208 156
f 141 217 148
f 173 151 12
f 182 60 250
f 62 95 174
f 24 166 193
f 202 39 178
f 246 210 85
f 171 117 221
f 62 168 95
f 205 66 127
f 96 227 20
f 24 203 166
f 10 28 35
f 80 195 77
f 171 58 46
f 145 207 93
f 250 60 98
f 142 103 81
f 200 70 11
f 60 182 84
f 40 72 185
f 91 125 78
f 92 69 190
f 63 125 4
f 77 120 237
f 160 201 106
f 245 47 210
f 24 193 177
f 148 194 238
f 179 192 218
f 152 249 41
f 101 104 67
f 147 189 181
f 228 225 173
f 113 156 241
f 44 115 137
f 133 19 18
f 162 187 75
f 18 151 219
f 123 49 144
f 128 82 222
f 219 83 18
f 251 217 141
f 26 96 31
f 222 175 128
f 24 177 16
f 208 243 156
f 55 138 88
f 164 147 178
f 144 42 136
f 216 55 33
f 53 61 163
f 232 59 143
f 211 12 77
f 38 228 213
f 245 182 174
f 215 33 55
f 238 251 141
f 188 67 239
f 97 143 150
f 197 85 57
f 122 231 117
f 40 185 30
f 223 40 68
f 169 199 244
f 137 115 7
f 2 36 204
f 212 74 50
f 204 36 127
f 214 234 140
f 202 147 181
f 57 47 168
f 236 133 56
f 154 216 42
f 68 198 27
f 94 212 235
f 17 37 79
f 135 180 23
f 2 100 51
f 173 12 211
f 26 114 165
f 244 54 169
f 172 21 192
f 207 63 183
f 206 167 170
f 34 48 135
f 230 64 227
f 146 41 54
f 142 127 109
f 214 28 10
f 72 173 185
f 159 21 62
f 91 90 102
f 102 90 229
f 181 189 202
f 45 10 35
f 76 168 62
f 160 247 201
f 235 184 16
f 199 27 198
f 207 145 63
f 58 163 10
f 129 75 98
f 144 154 42
f 24 184 155
f 139 27 152
f 199 169 27
f 192 21 229
f 115 201 7
f 61 29 65
f 15 116 25
f 130 142 81
f 187 52 211
f 190 69 111
f 99 209 76
f 157 166 176
f 247 7 201
f 79 148 217
f 52 164 178
f 239 186 188
f 12 151 6
f 84 196 156
f 233 147 164
f 108 242 114
f 138 87 88
f 120 123 48
f 106 201 115
f 186 193 166
f 194 193 186
f 41 146 225
f 122 28 214
f 162 242 108
f 225 228 38
f 233 44 189
f 2 204 100
f 8 60 158
f 158 84 156
f 150 143 206
f 120 23 237
f 54 244 14
f 16 37 235
f 9 248 160
f 182 43 167
f 31 32 124
f 173 225 151
f 48 34 120
f 145 93 136
f 239 107 194
f 79 240 177
f 100 204 226
f 160 248 224
f 156 243 5
f 161 8 243
f 239 194 186
f 222 86 191
f 3 43 182
f 5 243 8
f 16 177 240
f 113 196 59
f 219 151 14
f 20 175 191
f 243 232 161
f 107 75 129
f 49 120 77
f 241 196 113
f 227 242 230
f 72 40 223
f 31 96 191
f 126 178 39
f 250 174 182
f 131 48 123
f 26 124 104
f 150 157 129
f 63 105 183
f 121 251 74
f 135 13 1
f 106 115 44
f 98 150 129
f 15 73 221
f 220 226 186
f 164 187 81
f 164 52 187
f 142 109 103
f 237 80 77
f 167 43 170
f 86 31 191
f 72 223 213
f 135 23 34
f 85 172 246
f 44 137 189
f 76 118 197
f 172 118 99
f 123 144 136
f 251 238 74
f 125 145 136
f 92 248 9
f 187 101 130
f 169 249 27
f 89 15 221
f 113 59 208
f 245 210 179
f 125 63 145
f 110 234 30
f 179 246 192

