# WaveFront *.obj file (generated by Cinema 4D)

v 30.382366 152.201858 -8.937500
v 62.617531 152.201858 -8.937500
v 62.617531 152.201858 8.937500
v 30.382366 152.201858 8.937500
v 26.311901 169.671714 -8.937500
v 54.228371 188.206939 -8.937500
v 54.228371 188.206939 8.937500
v 26.311897 169.671714 8.937500
v 15.191183 182.460540 -8.937500
v 31.308765 214.564483 -8.937500
v 31.308765 214.564483 8.937500
v 15.191183 182.460540 8.937500
v 0.000000 187.141570 -8.937500
v 0.000000 224.212005 -8.937500
v 0.000000 224.212005 8.937500
v 0.000000 187.141570 8.937500
v -15.191183 182.460540 -8.937500
v -31.308765 214.564483 -8.937500
v -31.308765 214.564483 8.937500
v -15.191183 182.460540 8.937500
v -26.311901 169.671714 -8.937500
v -54.228371 188.206939 -8.937500
v -54.228371 188.206939 8.937500
v -26.311901 169.671714 8.937500
v -30.382366 152.201858 -8.937500
v -62.617531 152.201858 -8.937500
v -62.617531 152.201858 8.937500
v -30.382366 152.201858 8.937500
v -26.537958 134.731994 -8.937500
v -55.449081 116.196777 -8.937500
v -55.449081 116.196777 8.937500
v -26.537954 134.731994 8.937500
v -16.990192 121.390312 -8.937500
v 0.000000 111.165138 -10.217999
v -41.023422 86.853788 -8.937500
v -16.990194 121.390312 8.937500
v -41.023422 86.853790 8.937500
v 26.537956 134.731994 8.937500
v 55.449081 116.196769 8.937500
v 0.000000 111.165141 10.217999
v 16.990192 121.390312 -8.937500
v 41.023422 86.853786 -8.937500
v 41.023422 86.853788 8.937500
v 16.990192 121.390312 8.937500
v 26.537956 134.731994 -8.937500
v 55.449081 116.196777 -8.937500
v -26.449848 54.328058 10.217999
v 26.449848 54.328057 -10.217999
v -26.449848 54.328057 -10.217999
v 26.449846 54.328057 10.217999
v 11.153769 -174.506577 6.620370
v 11.153769 -174.506592 -6.620370
v -11.153769 -174.506592 -6.620370
v -11.153769 -174.506577 6.620370
v -31.900053 26.292175 -8.937500
v 31.900053 26.292175 -8.937500
v 31.900053 26.292175 8.937500
v -31.900053 26.292175 8.937500
v -18.615776 3.365131 -8.937500
v 18.615776 3.365131 -8.937500
v 18.615776 3.365131 8.937500
v -18.615776 3.365131 8.937500
v -15.057587 -21.694535 -8.937500
v 15.057587 -21.694535 -8.937500
v 15.057587 -21.694535 8.937500
v -15.057587 -21.694535 8.937500
v -15.057587 -49.416207 -8.937500
v 15.057587 -49.416199 -8.937500
v 15.057587 -49.416199 8.937500
v -15.057587 -49.416207 8.937500
v -15.057587 -84.866685 -8.937500
v 15.057587 -84.866685 -8.937500
v 15.057587 -84.866685 8.937500
v -15.057587 -84.866685 8.937500
v -15.057587 -141.671219 -8.937500
v 15.057587 -141.671219 -8.937500
v 15.057587 -141.671204 8.937500
v -15.057587 -141.671219 8.937500
v 44.901669 166.037925 -12.187500
v 46.499950 152.201858 -12.187500
v 60.465256 170.833724 -8.937500
v 40.270134 178.939323 -12.187500
v 29.338072 161.242141 -8.937500
v 66.124741 172.577644 -0.000000
v 68.478462 152.201858 -0.000000
v 60.465256 170.833724 8.937500
v 59.304092 191.576980 -0.000000
v 44.901657 166.037925 12.187500
v 46.499947 152.201858 12.187500
v 29.338070 161.242141 8.937500
v 40.270134 178.939323 12.187500
v 23.678581 159.498214 -0.000000
v 24.521427 152.201858 -0.000000
v 21.236179 166.301681 -0.000000
v 32.870300 190.002685 -12.187500
v 44.263634 203.105041 -8.937500
v 23.249973 198.512512 -12.187500
v 21.476957 176.900344 -8.937500
v 48.406670 207.869537 -0.000000
v 44.263634 203.105041 8.937500
v 34.239231 220.401565 -0.000000
v 32.870300 190.002715 12.187500
v 21.476955 176.900359 8.937500
v 23.249973 198.512512 12.187500
v 17.333923 172.135879 -0.000000
v 12.260715 176.623458 -0.000000
v 12.031364 203.838775 -12.187500
v 16.201616 221.736907 -8.937500
v 0.000000 205.676803 -12.187500
v 7.861113 185.940627 -8.937500
v 17.718071 228.245315 -0.000000
v 16.201616 221.736907 8.937500
v 0.000000 230.952072 -0.000000
v 12.031364 203.838775 12.187500
v 7.861112 185.940627 8.937500
v 0.000000 205.676803 12.187500
v 6.344656 179.432205 -0.000000
v 0.000000 180.401481 -0.000000
v -12.031364 203.838775 -12.187500
v -16.201616 221.736892 -8.937500
v -23.249975 198.512512 -12.187500
v -7.861112 185.940627 -8.937500
v -17.718071 228.245300 -0.000000
v -16.201616 221.736892 8.937500
v -34.239231 220.401550 -0.000000
v -12.031364 203.838775 12.187500
v -7.861113 185.940627 8.937500
v -23.249973 198.512512 12.187500
v -6.344657 179.432227 -0.000000
v -12.260714 176.623458 -0.000000
v -32.870296 190.002700 -12.187500
v -44.263634 203.105041 -8.937500
v -40.270138 178.939323 -12.187500
v -21.476959 176.900344 -8.937500
v -48.406670 207.869521 -0.000000
v -44.263634 203.105041 8.937500
v -59.304096 191.576965 -0.000000
v -32.870300 190.002715 12.187500
v -21.476957 176.900344 8.937500
v -40.270134 178.939323 12.187500
v -17.333923 172.135864 -0.000000
v -21.236179 166.301681 -0.000000
v -44.901665 166.037925 -12.187500
v -60.465256 170.833709 -8.937500
v -46.499947 152.201858 -12.187500
v -29.338070 161.242141 -8.937500
v -66.124741 172.577636 -0.000000
v -60.465256 170.833709 8.937500
v -68.478462 152.201858 -0.000000
v -44.901657 166.037925 12.187500
v -29.338070 161.242141 8.937500
v -46.499947 152.201858 12.187500
v -23.678581 159.498214 -0.000000
v -24.521427 152.201858 -0.000000
v -44.974003 138.365791 -12.187500
v -60.587326 133.570007 -8.937500
v -40.993523 125.464385 -12.187500
v -29.360676 143.161575 -8.937500
v -66.264900 131.826080 -0.000000
v -60.587330 133.570007 8.937500
v -60.705647 112.826732 -0.000000
v -44.973999 138.365798 12.187500
v -29.360672 143.161575 8.937500
v -40.993523 125.464385 12.187500
v -23.683102 144.905502 -0.000000
v -21.281389 138.102043 -0.000000
v -35.370178 114.224098 -12.187500
v -48.482193 101.000129 -8.937500
v -29.006813 104.122047 -12.187500
v -22.258171 127.448066 -8.937500
v -53.250198 96.191413 -0.000000
v -48.482193 101.000129 8.937500
v -45.393101 80.574418 -0.000000
v -35.370178 114.224098 12.187500
v -22.258171 127.448066 8.937500
v -29.006813 104.122047 12.187500
v -17.490166 132.256782 -0.000000
v -12.620514 127.669677 -0.000000
v 66.264900 131.826072 -0.000000
v 60.705647 112.826732 -0.000000
v 60.587330 133.570007 8.937500
v 60.587330 133.570007 -8.937500
v 23.683102 144.905502 -0.000000
v 21.281389 138.102043 -0.000000
v 29.360672 143.161575 -8.937500
v 29.360672 143.161575 8.937500
v 44.973999 138.365791 -12.187500
v 40.993519 125.464385 -12.187500
v -6.882470 124.554244 -0.000000
v -10.767488 116.437682 -9.047188
v 0.000000 123.068839 -0.000000
v -10.767488 116.437682 9.047188
v 17.490166 132.256782 -0.000000
v 12.620514 127.669677 -0.000000
v 22.258171 127.448066 -8.937500
v 22.258171 127.448066 8.937500
v 44.973999 138.365791 12.187500
v 40.993523 125.464385 12.187500
v 35.370178 114.224094 12.187500
v 29.006813 104.122047 12.187500
v 48.482193 101.000125 8.937500
v 6.882470 124.554244 -0.000000
v 10.767488 116.437682 -9.047188
v 10.767488 116.437682 9.047188
v 35.370186 114.224094 -12.187500
v 29.006813 104.122047 -12.187500
v 48.482193 101.000129 -8.937500
v 53.250198 96.191406 -0.000000
v 45.393101 80.574416 -0.000000
v 38.764175 64.584241 -0.000000
v 34.151604 72.220103 -9.047188
v 36.186783 49.154148 -0.000000
v 34.151604 72.220104 9.047188
v 22.378361 94.347850 12.224062
v 13.070117 83.573451 12.508437
v 22.378361 94.347850 -12.224062
v 13.070117 83.573451 -12.508437
v 0.000000 -181.390000 0.000000
v -14.087970 -177.004273 0.000000
v 0.000000 -177.004273 8.361979
v 14.087968 -177.004273 0.000000
v 0.000000 -177.004273 -8.361979
v 19.886663 -163.846558 0.000000
v 14.572779 -163.619996 8.649739
v 20.533073 -141.671204 0.000000
v 14.572778 -163.619996 -8.649739
v -22.378361 94.347850 -12.224062
v -13.070117 83.573451 -12.508437
v -34.151600 72.220104 -9.047188
v -40.941196 36.649669 -0.000000
v -36.186783 49.154148 -0.000000
v -30.027740 36.985914 9.047188
v -43.500072 26.292175 -0.000000
v -30.027742 36.985912 -9.047188
v 0.000000 -163.846558 11.803820
v -14.572778 -163.619996 8.649739
v 0.000000 -141.671204 12.187500
v 0.000000 36.869071 -12.224062
v 0.000000 26.292175 -12.187500
v 30.027740 36.985914 -9.047188
v 0.000000 51.773098 -12.508437
v -38.764175 64.584242 -0.000000
v -34.151604 72.220104 9.047188
v -22.378361 94.347850 12.224062
v -13.070117 83.573451 12.508437
v 0.000000 72.395869 -12.826667
v 0.000000 72.395869 12.826667
v 0.000000 51.773098 12.508437
v 0.000000 15.218047 -12.187500
v -26.206619 15.218047 -8.937500
v 0.000000 3.365131 -12.187500
v 26.206619 15.218047 -8.937500
v 40.941196 36.649669 -0.000000
v 30.027742 36.985912 9.047188
v 43.500072 26.292175 -0.000000
v 0.000000 36.869071 12.224062
v 0.000000 26.292175 12.187500
v -35.736298 15.218047 -0.000000
v -26.206619 15.218047 8.937500
v -25.385151 3.365131 -0.000000
v 0.000000 -8.890473 -12.187500
v -15.413405 -8.890473 -8.937500
v 0.000000 -21.694535 -12.187500
v 15.413405 -8.890473 -8.937500
v 35.736298 15.218051 -0.000000
v 26.206619 15.218047 8.937500
v 25.385151 3.365131 -0.000000
v 0.000000 15.218051 12.187500
v 0.000000 3.365131 12.187500
v -21.018282 -8.890473 0.000000
v -15.413405 -8.890473 8.937500
v -20.533073 -21.694535 0.000000
v 0.000000 -35.233552 -12.187500
v -15.057588 -35.233552 -8.937500
v 0.000000 -49.416207 -12.187500
v 15.057588 -35.233552 -8.937500
v 21.018282 -8.890465 0.000000
v 15.413405 -8.890473 8.937500
v 20.533073 -21.694535 0.000000
v 0.000000 -8.890465 12.187500
v 0.000000 -21.694535 12.187500
v -20.533073 -35.233552 0.000000
v -15.057589 -35.233552 8.937500
v -20.533073 -49.416207 0.000000
v 0.000000 -64.675370 -12.187500
v -15.057588 -64.675385 -8.937500
v 0.000000 -84.866669 -12.187500
v 15.057588 -64.675385 -8.937500
v 20.533073 -35.233552 0.000000
v 15.057589 -35.233552 8.937500
v 20.533073 -49.416207 0.000000
v 0.000000 -35.233552 12.187500
v 0.000000 -49.416207 12.187500
v -20.533073 -64.675370 0.000000
v -15.057589 -64.675385 8.937500
v -20.533073 -84.866669 0.000000
v 0.000000 -112.808365 -12.187500
v -15.057588 -112.808381 -8.937500
v 0.000000 -141.671204 -12.187500
v 15.057588 -112.808381 -8.937500
v 20.533073 -64.675370 0.000000
v 15.057589 -64.675385 8.937500
v 20.533073 -84.866669 0.000000
v 0.000000 -64.675370 12.187500
v 0.000000 -84.866669 12.187500
v -20.533073 -112.808365 0.000000
v -15.057589 -112.808381 8.937500
v -20.533073 -141.671204 0.000000
v 0.000000 -163.846558 -11.803820
v -14.572778 -163.619996 -8.649739
v 20.533073 -112.808365 0.000000
v 15.057589 -112.808381 8.937500
v 0.000000 -112.808365 12.187500
v -19.886663 -163.846558 0.000000
v 55.291359 152.201858 -11.375000
v 37.708542 152.201858 -11.375000
v 57.839062 179.756317 -8.937500
v 62.070297 161.596450 -8.937500
v 32.656555 173.884261 -11.375000
v 47.883720 183.994384 -11.375000
v 30.116848 156.760162 -8.937500
v 28.063828 165.571433 -8.937500
v 67.013229 152.201858 4.875000
v 67.013229 152.201858 -4.875000
v 57.839062 179.756317 8.937500
v 62.070297 161.596450 8.937500
v 58.035164 190.734466 -4.875000
v 58.035164 190.734466 4.875000
v 37.708538 152.201858 11.375000
v 55.291359 152.201858 11.375000
v 28.063824 165.571433 8.937500
v 30.116844 156.760162 8.937500
v 47.883720 183.994384 11.375000
v 32.656555 173.884261 11.375000
v 25.986662 152.201858 -4.875000
v 25.986662 152.201858 4.875000
v 22.505108 167.144187 4.875000
v 22.505108 167.144187 -4.875000
v 38.109894 209.322173 -8.937500
v 49.669846 196.028228 -8.937500
v 18.854271 189.756896 -11.375000
v 27.645679 207.268127 -11.375000
v 24.100080 173.466651 -8.937500
v 18.491127 179.916946 -8.937500
v 38.109894 209.322173 8.937500
v 49.669846 196.028228 8.937500
v 33.506615 218.942291 -4.875000
v 33.506615 218.942291 4.875000
v 18.491127 179.916953 8.937500
v 24.100079 173.466659 8.937500
v 27.645679 207.268127 11.375000
v 18.854271 189.756896 11.375000
v 12.993331 178.082733 4.875000
v 12.993332 178.082733 -4.875000
v 8.169212 223.582702 -8.937500
v 23.960403 218.716766 -8.937500
v 0.000000 195.566680 -11.375000
v 0.000000 215.786926 -11.375000
v 11.625718 184.475250 -8.937500
v 3.963746 186.836227 -8.937500
v 8.169212 223.582702 8.937500
v 23.960403 218.716766 8.937500
v 0.000000 229.267059 -4.875000
v 0.000000 229.267059 4.875000
v 3.963746 186.836242 8.937500
v 11.625717 184.475250 8.937500
v 0.000000 215.786926 11.375000
v 0.000000 195.566680 11.375000
v 0.000000 182.086517 4.875000
v 0.000000 182.086517 -4.875000
v -23.960403 218.716766 -8.937500
v -8.169212 223.582702 -8.937500
v -18.854271 189.756896 -11.375000
v -27.645679 207.268127 -11.375000
v -3.963746 186.836227 -8.937500
v -11.625717 184.475257 -8.937500
v -23.960403 218.716766 8.937500
v -8.169212 223.582702 8.937500
v -33.506615 218.942291 -4.875000
v -33.506615 218.942291 4.875000
v -11.625718 184.475257 8.937500
v -3.963746 186.836242 8.937500
v -27.645679 207.268127 11.375000
v -18.854271 189.756896 11.375000
v -12.993331 178.082733 4.875000
v -12.993331 178.082733 -4.875000
v -49.669846 196.028228 -8.937500
v -38.109894 209.322173 -8.937500
v -32.656555 173.884261 -11.375000
v -47.883720 183.994384 -11.375000
v -18.491127 179.916946 -8.937500
v -24.100080 173.466651 -8.937500
v -49.669846 196.028228 8.937500
v -38.109894 209.322173 8.937500
v -58.035164 190.734451 -4.875000
v -58.035164 190.734451 4.875000
v -24.100080 173.466651 8.937500
v -18.491127 179.916946 8.937500
v -47.883720 183.994384 11.375000
v -32.656555 173.884261 11.375000
v -22.505108 167.144187 4.875000
v -22.505108 167.144187 -4.875000
v -62.070297 161.596450 -8.937500
v -57.839062 179.756309 -8.937500
v -37.708542 152.201858 -11.375000
v -55.291359 152.201858 -11.375000
v -28.063828 165.571433 -8.937500
v -30.116844 156.760162 -8.937500
v -62.070297 161.596450 8.937500
v -57.839062 179.756309 8.937500
v -67.013229 152.201858 -4.875000
v -67.013229 152.201858 4.875000
v -30.116844 156.760162 8.937500
v -28.063828 165.571433 8.937500
v -55.291359 152.201858 11.375000
v -37.708538 152.201858 11.375000
v -25.986662 152.201858 4.875000
v -25.986662 152.201858 -4.875000
v -58.327347 124.647392 -8.937500
v -62.070297 142.807266 -8.937500
v -33.108669 130.519447 -11.375000
v -48.878372 120.409328 -11.375000
v -30.116848 147.643546 -8.937500
v -28.154249 138.832282 -8.937500
v -58.327347 124.647392 8.937500
v -62.070297 142.807266 8.937500
v -59.391510 113.669242 -4.875000
v -59.391510 113.669242 4.875000
v -28.154247 138.832282 8.937500
v -30.116844 147.643554 8.937500
v -48.878372 120.409328 11.375000
v -33.108665 130.519447 11.375000
v -22.595530 137.259528 4.875000
v -22.595531 137.259528 -4.875000
v -44.730148 93.887351 -8.937500
v -52.111267 108.375480 -8.937500
v -22.452291 113.541099 -11.375000
v -35.561329 94.702998 -11.375000
v -24.552197 130.937057 -8.937500
v -19.717100 124.265617 -8.937500
v -44.730148 93.887351 8.937500
v -52.111267 108.375480 8.937500
v -44.300682 82.144260 -4.875000
v -44.300682 82.144260 4.875000
v -19.717100 124.265617 8.937500
v -24.552193 130.937057 8.937500
v -35.561325 94.702995 11.375000
v -22.452293 113.541099 11.375000
v -13.712934 126.099838 4.875000
v -13.712934 126.099838 -4.875000
v 59.391510 113.669242 4.875000
v 59.391510 113.669242 -4.875000
v 62.070297 142.807266 8.937500
v 58.327347 124.647392 8.937500
v 58.327347 124.647392 -8.937500
v 62.070297 142.807266 -8.937500
v 22.595531 137.259528 -4.875000
v 22.595530 137.259528 4.875000
v 30.116844 147.643554 -8.937500
v 28.154249 138.832282 -8.937500
v 28.154247 138.832282 8.937500
v 30.116844 147.643546 8.937500
v 48.878372 120.409328 -11.375000
v 33.108669 130.519447 -11.375000
v -6.481645 114.109939 -9.376249
v -14.138664 118.822734 -8.937500
v 0.000000 120.450454 5.313750
v 0.000000 120.450454 -5.313750
v -14.138664 118.822734 8.937500
v -6.481645 114.109939 9.376249
v 13.712934 126.099838 -4.875000
v 13.712934 126.099838 4.875000
v 24.552197 130.937057 -8.937500
v 19.717100 124.265617 -8.937500
v 19.717098 124.265617 8.937500
v 24.552193 130.937057 8.937500
v 33.108665 130.519447 11.375000
v 48.878372 120.409324 11.375000
v 22.452291 113.541099 11.375000
v 35.561329 94.702998 11.375000
v 44.730148 93.887351 8.937500
v 52.111267 108.375472 8.937500
v 14.138664 118.822734 -8.937500
v 6.481645 114.109939 -9.376249
v 6.481645 114.109939 9.376249
v 14.138664 118.822734 8.937500
v 35.561325 94.702995 -11.375000
v 22.452293 113.541099 -11.375000
v 52.111267 108.375480 -8.937500
v 44.730148 93.887351 -8.937500
v 44.300682 82.144260 4.875000
v 44.300682 82.144260 -4.875000
v 30.788076 64.111875 -9.376249
v 37.530312 79.716052 -8.937500
v 33.975220 50.302513 5.313750
v 33.975220 50.302513 -5.313750
v 37.530312 79.716056 8.937500
v 30.788076 64.111875 9.376249
v 6.400383 97.412010 12.016874
v 19.347376 69.092495 12.016874
v 19.347378 69.092494 -12.016874
v 6.400383 97.412010 -12.016874
v -13.118353 -176.178895 3.927083
v -13.118353 -176.178895 -3.927083
v 6.616213 -176.178895 7.786458
v -6.616213 -176.178895 7.786458
v 13.118353 -176.178895 -3.927083
v 13.118353 -176.178895 3.927083
v -6.616213 -176.178895 -7.786458
v 6.616213 -176.178895 -7.786458
v 15.057587 -153.811463 8.937500
v 13.118353 -170.644089 7.786458
v 19.164202 -141.671204 -4.875000
v 19.164202 -141.671204 4.875000
v 13.118353 -170.644089 -7.786458
v 15.057587 -153.811463 -8.937500
v -6.400383 97.412010 -12.016874
v -19.347378 69.092495 -12.016874
v -30.788076 64.111875 -9.376249
v -37.530312 79.716056 -8.937500
v -33.975220 50.302514 5.313750
v -33.975220 50.302513 -5.313750
v -31.663206 31.392476 8.937500
v -27.967022 43.876089 9.376249
v -40.600067 26.292175 -4.875000
v -40.600067 26.292175 4.875000
v -27.967022 43.876088 -9.376249
v -31.663204 31.392476 -8.937500
v -15.057587 -153.811463 8.937500
v -13.118353 -170.644089 7.786458
v 8.213229 -141.671204 11.375000
v -8.213229 -141.671204 11.375000
v 17.400028 26.292175 -11.375000
v -17.400028 26.292175 -11.375000
v 27.967022 43.876088 -9.376249
v 31.663206 31.392476 -8.937500
v -13.446165 52.615051 -12.016874
v 13.446165 52.615050 -12.016874
v -30.788076 64.111875 9.376249
v -37.530312 79.716056 8.937500
v -19.347378 69.092495 12.016874
v -6.400383 97.412010 12.016874
v -13.446165 52.615051 12.016874
v 13.446165 52.615051 12.016874
v -22.173967 9.359992 -8.937500
v -29.764919 20.881400 -8.937500
v 10.154060 3.365131 -11.375000
v -10.154060 3.365131 -11.375000
v 29.764919 20.881400 -8.937500
v 22.173967 9.359996 -8.937500
v 27.967020 43.876088 9.376249
v 31.663204 31.392476 8.937500
v 40.600067 26.292175 4.875000
v 40.600067 26.292175 -4.875000
v -17.400028 26.292175 11.375000
v 17.400028 26.292175 11.375000
v -22.173967 9.359992 8.937500
v -29.764919 20.881404 8.937500
v -23.692806 3.365131 -4.875000
v -23.692806 3.365131 4.875000
v -15.057587 -15.209397 -8.937500
v -16.480862 -2.708661 -8.937500
v 8.213229 -21.694535 -11.375000
v -8.213229 -21.694535 -11.375000
v 16.480862 -2.708661 -8.937500
v 15.057587 -15.209397 -8.937500
v 29.764919 20.881404 8.937500
v 22.173967 9.359996 8.937500
v 23.692806 3.365131 4.875000
v 23.692806 3.365131 -4.875000
v -10.154060 3.365131 11.375000
v 10.154060 3.365131 11.375000
v -15.057587 -15.209397 8.937500
v -16.480862 -2.708661 8.937500
v -19.164202 -21.694535 -4.875000
v -19.164202 -21.694535 4.875000
v -15.057587 -42.253022 -8.937500
v -15.057587 -28.374985 -8.937500
v 8.213229 -49.416207 -11.375000
v -8.213229 -49.416207 -11.375000
v 15.057587 -28.374985 -8.937500
v 15.057587 -42.253022 -8.937500
v 16.480862 -2.708661 8.937500
v 15.057587 -15.209397 8.937500
v 19.164202 -21.694535 4.875000
v 19.164202 -21.694535 -4.875000
v -8.213229 -21.694535 11.375000
v 8.213229 -21.694535 11.375000
v -15.057587 -42.253022 8.937500
v -15.057587 -28.374985 8.937500
v -19.164202 -49.416207 -4.875000
v -19.164202 -49.416207 4.875000
v -15.057587 -73.877869 -8.937500
v -15.057587 -56.705903 -8.937500
v 8.213229 -84.866685 -11.375000
v -8.213229 -84.866685 -11.375000
v 15.057587 -56.705903 -8.937500
v 15.057587 -73.877869 -8.937500
v 15.057587 -28.374985 8.937500
v 15.057587 -42.253022 8.937500
v 19.164202 -49.416207 4.875000
v 19.164202 -49.416207 -4.875000
v -8.213229 -49.416207 11.375000
v 8.213229 -49.416207 11.375000
v -15.057587 -73.877869 8.937500
v -15.057587 -56.705903 8.937500
v -19.164202 -84.866685 -4.875000
v -19.164202 -84.866685 4.875000
v -15.057587 -127.651978 -8.937500
v -15.057587 -98.195069 -8.937500
v 8.213229 -141.671204 -11.375000
v -8.213229 -141.671204 -11.375000
v 15.057587 -98.195069 -8.937500
v 15.057587 -127.651978 -8.937500
v 15.057587 -56.705903 8.937500
v 15.057587 -73.877869 8.937500
v 19.164202 -84.866685 4.875000
v 19.164202 -84.866685 -4.875000
v -8.213229 -84.866685 11.375000
v 8.213229 -84.866685 11.375000
v -15.057587 -127.651978 8.937500
v -15.057587 -98.195069 8.937500
v -19.164202 -141.671204 -4.875000
v -19.164202 -141.671204 4.875000
v -13.118353 -170.644089 -7.786458
v -15.057587 -153.811463 -8.937500
v 15.057587 -98.195069 8.937500
v 15.057587 -127.651978 8.937500
v 54.808151 160.497299 -11.375000
v 53.390896 168.653808 -11.375000
v 51.071964 176.532478 -11.375000
v 42.951447 172.663879 -12.187500
v 34.830925 168.795272 -11.375000
v 36.412430 163.422042 -11.375000
v 37.378998 157.859321 -11.375000
v 46.093575 159.178314 -12.187500
v 66.427582 162.255943 4.875000
v 64.709869 172.141662 4.875000
v 61.899319 181.690627 4.875000
v 63.252739 182.335395 -0.000000
v 61.899319 181.690620 -4.875000
v 64.709869 172.141662 -4.875000
v 66.427582 162.255943 -4.875000
v 67.880013 162.475768 -0.000000
v 37.378990 157.859321 11.375000
v 36.412430 163.422042 11.375000
v 34.830925 168.795272 11.375000
v 42.951443 172.663879 12.187500
v 51.071960 176.532485 11.375000
v 53.390892 168.653808 11.375000
v 54.808151 160.497299 11.375000
v 46.093571 159.178314 12.187500
v 25.759556 156.100677 -4.875000
v 25.093452 159.934196 -4.875000
v 24.003567 163.637130 -4.875000
v 22.650146 162.992355 -0.000000
v 24.003565 163.637130 4.875000
v 25.093452 159.934196 4.875000
v 25.759556 156.100677 4.875000
v 24.307125 155.880843 -0.000000
v 43.858536 190.900588 -11.375000
v 39.084846 197.149413 -11.375000
v 33.651085 202.639175 -11.375000
v 28.300510 194.619567 -12.187500
v 22.949938 186.599952 -11.375000
v 26.655748 182.855956 -11.375000
v 29.911392 178.594283 -11.375000
v 36.884964 184.747436 -12.187500
v 53.156635 199.104812 4.875000
v 47.370911 206.678405 4.875000
v 40.785179 213.331985 4.875000
v 41.676941 214.668578 -0.000000
v 40.785179 213.331985 -4.875000
v 47.370911 206.678405 -4.875000
v 53.156631 199.104812 -4.875000
v 54.318893 200.130340 -0.000000
v 29.911390 178.594283 11.375000
v 26.655748 182.855972 11.375000
v 22.949938 186.599960 11.375000
v 28.300510 194.619567 12.187500
v 33.651085 202.639175 11.375000
v 39.084846 197.149444 11.375000
v 43.858536 190.900604 11.375000
v 36.884964 184.747444 12.187500
v 20.613293 170.390075 -4.875000
v 18.369682 173.326995 -4.875000
v 15.815842 175.907150 -4.875000
v 14.924080 174.570548 -0.000000
v 15.815842 175.907150 4.875000
v 18.369682 173.326995 4.875000
v 20.613293 170.390075 4.875000
v 19.451031 169.364547 -0.000000
v 21.157066 210.934600 -11.375000
v 14.306047 213.601379 -11.375000
v 7.213425 215.231231 -11.375000
v 6.066479 205.209472 -12.187500
v 4.919534 195.187698 -11.375000
v 9.756681 194.076141 -11.375000
v 14.429055 192.257415 -11.375000
v 17.793060 201.596008 -12.187500
v 25.642406 223.386077 4.875000
v 17.338959 226.618209 4.875000
v 8.742685 228.593582 4.875000
v 8.933843 230.263854 -0.000000
v 8.742685 228.593566 -4.875000
v 17.338959 226.618209 -4.875000
v 25.642406 223.386077 -4.875000
v 26.203074 224.942504 -0.000000
v 14.429055 192.257415 11.375000
v 9.756681 194.076141 11.375000
v 4.919534 195.187713 11.375000
v 6.066479 205.209472 12.187500
v 7.213425 215.231231 11.375000
v 14.306047 213.601379 11.375000
v 21.157066 210.934600 11.375000
v 17.793060 201.596008 12.187500
v 9.943716 179.805953 -4.875000
v 6.723771 181.059326 -4.875000
v 3.390274 181.825347 -4.875000
v 3.199116 180.155044 -0.000000
v 3.390274 181.825347 4.875000
v 6.723771 181.059326 4.875000
v 9.943715 179.805953 4.875000
v 9.383048 178.249526 -0.000000
v -7.213425 215.231231 -11.375000
v -14.306047 213.601379 -11.375000
v -21.157066 210.934600 -11.375000
v -17.793060 201.596008 -12.187500
v -14.429055 192.257415 -11.375000
v -9.756681 194.076141 -11.375000
v -4.919534 195.187698 -11.375000
v -6.066479 205.209472 -12.187500
v -8.742685 228.593566 4.875000
v -17.338959 226.618194 4.875000
v -25.642406 223.386077 4.875000
v -26.203074 224.942504 -0.000000
v -25.642406 223.386077 -4.875000
v -17.338959 226.618194 -4.875000
v -8.742685 228.593566 -4.875000
v -8.933843 230.263854 -0.000000
v -4.919534 195.187713 11.375000
v -9.756681 194.076141 11.375000
v -14.429055 192.257415 11.375000
v -17.793060 201.596008 12.187500
v -21.157066 210.934600 11.375000
v -14.306047 213.601379 11.375000
v -7.213425 215.231231 11.375000
v -6.066479 205.209472 12.187500
v -3.390274 181.825347 -4.875000
v -6.723771 181.059333 -4.875000
v -9.943715 179.805961 -4.875000
v -9.383048 178.249526 -0.000000
v -9.943716 179.805961 4.875000
v -6.723771 181.059333 4.875000
v -3.390274 181.825347 4.875000
v -3.199116 180.155052 -0.000000
v -33.651085 202.639175 -11.375000
v -39.084846 197.149444 -11.375000
v -43.858536 190.900604 -11.375000
v -36.884964 184.747436 -12.187500
v -29.911392 178.594283 -11.375000
v -26.655750 182.855972 -11.375000
v -22.949940 186.599952 -11.375000
v -28.300512 194.619567 -12.187500
v -40.785179 213.331985 4.875000
v -47.370911 206.678405 4.875000
v -53.156631 199.104797 4.875000
v -54.318893 200.130325 -0.000000
v -53.156631 199.104797 -4.875000
v -47.370911 206.678405 -4.875000
v -40.785179 213.331985 -4.875000
v -41.676941 214.668578 -0.000000
v -22.949938 186.599960 11.375000
v -26.655748 182.855972 11.375000
v -29.911392 178.594283 11.375000
v -36.884964 184.747436 12.187500
v -43.858536 190.900604 11.375000
v -39.084846 197.149444 11.375000
v -33.651085 202.639175 11.375000
v -28.300510 194.619567 12.187500
v -15.815842 175.907142 -4.875000
v -18.369682 173.326980 -4.875000
v -20.613293 170.390075 -4.875000
v -19.451031 169.364547 -0.000000
v -20.613293 170.390075 4.875000
v -18.369682 173.326980 4.875000
v -15.815841 175.907142 4.875000
v -14.924079 174.570541 -0.000000
v -51.071960 176.532470 -11.375000
v -53.390892 168.653800 -11.375000
v -54.808151 160.497299 -11.375000
v -46.093571 159.178314 -12.187500
v -37.378990 157.859321 -11.375000
v -36.412430 163.422042 -11.375000
v -34.830925 168.795272 -11.375000
v -42.951443 172.663871 -12.187500
v -61.899319 181.690612 4.875000
v -64.709869 172.141654 4.875000
v -66.427582 162.255943 4.875000
v -67.880013 162.475768 -0.000000
v -66.427582 162.255943 -4.875000
v -64.709869 172.141654 -4.875000
v -61.899319 181.690612 -4.875000
v -63.252739 182.335380 -0.000000
v -34.830925 168.795272 11.375000
v -36.412430 163.422042 11.375000
v -37.378994 157.859321 11.375000
v -46.093571 159.178298 12.187500
v -54.808151 160.497291 11.375000
v -53.390892 168.653800 11.375000
v -51.071960 176.532470 11.375000
v -42.951443 172.663871 12.187500
v -24.003567 163.637130 -4.875000
v -25.093452 159.934196 -4.875000
v -25.759556 156.100677 -4.875000
v -24.307125 155.880843 -0.000000
v -25.759556 156.100677 4.875000
v -25.093452 159.934196 4.875000
v -24.003567 163.637130 4.875000
v -22.650146 162.992362 -0.000000
v -54.808151 143.906417 -11.375000
v -53.490360 135.749908 -11.375000
v -51.469826 127.871230 -11.375000
v -43.240799 131.739837 -12.187500
v -35.011772 135.608444 -11.375000
v -36.457642 140.981674 -11.375000
v -37.378998 146.544387 -11.375000
v -46.093575 145.225402 -12.187500
v -66.427582 142.147765 4.875000
v -64.845505 132.262054 4.875000
v -62.441856 122.713088 4.875000
v -63.813362 122.068321 -0.000000
v -62.441856 122.713088 -4.875000
v -64.845505 132.262054 -4.875000
v -66.427582 142.147765 -4.875000
v -67.880013 141.927932 -0.000000
v -37.378990 146.544395 11.375000
v -36.457642 140.981674 11.375000
v -35.011768 135.608444 11.375000
v -43.240795 131.739837 12.187500
v -51.469822 127.871230 11.375000
v -53.490356 135.749908 11.375000
v -54.808151 143.906417 11.375000
v -46.093571 145.225402 12.187500
v -25.759556 148.303039 -4.875000
v -25.102497 144.469520 -4.875000
v -24.039736 140.766586 -4.875000
v -22.668230 141.411353 -0.000000
v -24.039734 140.766586 4.875000
v -25.102493 144.469520 4.875000
v -25.759556 148.303039 4.875000
v -24.307125 148.522872 -0.000000
v -45.847839 113.503112 -11.375000
v -42.522186 107.011024 -11.375000
v -39.045364 100.791503 -11.375000
v -32.223625 109.076484 -12.187500
v -25.401882 117.361465 -11.375000
v -28.218176 121.437171 -11.375000
v -30.815620 125.809425 -11.375000
v -38.331730 119.656268 -12.187500
v -55.869324 105.298896 4.875000
v -52.058197 97.393588 4.875000
v -48.141018 89.744861 4.875000
v -49.277977 88.364032 -0.000000
v -48.141018 89.744861 -4.875000
v -52.058197 97.393588 -4.875000
v -55.869324 105.298896 -4.875000
v -57.122009 104.273368 -0.000000
v -30.815619 125.809425 11.375000
v -28.218176 121.437171 11.375000
v -25.401884 117.361465 11.375000
v -32.223625 109.076484 12.187500
v -39.045364 100.791503 11.375000
v -42.522186 107.011024 11.375000
v -45.847839 113.503112 11.375000
v -38.331730 119.656268 12.187500
v -20.794140 134.013641 -4.875000
v -18.682169 131.054603 -4.875000
v -16.306231 128.408111 -4.875000
v -15.169273 129.788940 -0.000000
v -16.306231 128.408111 4.875000
v -18.682169 131.054603 4.875000
v -20.794138 134.013641 4.875000
v -19.541454 135.039169 -0.000000
v 62.441856 122.713088 4.875000
v 64.845505 132.262054 4.875000
v 66.427582 142.147765 4.875000
v 67.880013 141.927932 -0.000000
v 66.427582 142.147765 -4.875000
v 64.845505 132.262054 -4.875000
v 62.441856 122.713088 -4.875000
v 63.813358 122.068321 -0.000000
v 24.039736 140.766586 -4.875000
v 25.102495 144.469520 -4.875000
v 25.759556 148.303039 -4.875000
v 24.307125 148.522872 -0.000000
v 25.759556 148.303039 4.875000
v 25.102495 144.469520 4.875000
v 24.039734 140.766586 4.875000
v 22.668230 141.411353 -0.000000
v 51.469822 127.871230 -11.375000
v 53.490356 135.749908 -11.375000
v 54.808151 143.906417 -11.375000
v 46.093571 145.225402 -12.187500
v 37.378990 146.544395 -11.375000
v 36.457642 140.981674 -11.375000
v 35.011772 135.608444 -11.375000
v 43.240799 131.739837 -12.187500
v -10.948894 124.155464 -4.875000
v -7.799397 122.509883 -4.948125
v -4.049740 121.097988 -5.167500
v -3.528849 123.508468 -0.000000
v -4.049740 121.097984 5.167500
v -7.799397 122.509883 4.948125
v -10.948894 124.155464 4.875000
v -9.885637 125.933044 -0.000000
v 16.306229 128.408111 -4.875000
v 18.682167 131.054603 -4.875000
v 20.794140 134.013641 -4.875000
v 19.541454 135.039169 -0.000000
v 20.794138 134.013641 4.875000
v 18.682167 131.054603 4.875000
v 16.306229 128.408111 4.875000
v 15.169272 129.788940 -0.000000
v 35.011768 135.608444 11.375000
v 36.457642 140.981674 11.375000
v 37.378994 146.544387 11.375000
v 46.093571 145.225402 12.187500
v 54.808151 143.906417 11.375000
v 53.490356 135.749908 11.375000
v 51.469822 127.871230 11.375000
v 43.240795 131.739837 12.187500
v 25.401882 117.361465 11.375000
v 28.218176 121.437171 11.375000
v 30.815620 125.809425 11.375000
v 38.331730 119.656265 12.187500
v 45.847839 113.503108 11.375000
v 42.522186 107.011024 11.375000
v 39.045364 100.791503 11.375000
v 32.223625 109.076484 12.187500
v 4.049740 121.097984 -5.167500
v 7.799397 122.509883 -4.948125
v 10.948894 124.155464 -4.875000
v 9.885637 125.933044 -0.000000
v 10.948894 124.155464 4.875000
v 7.799397 122.509883 4.948125
v 4.049740 121.097988 5.167500
v 3.528849 123.508468 -0.000000
v 39.045364 100.791503 -11.375000
v 42.522190 107.011024 -11.375000
v 45.847843 113.503112 -11.375000
v 38.331734 119.656265 -12.187500
v 30.815622 125.809425 -11.375000
v 28.218176 121.437171 -11.375000
v 25.401884 117.361465 -11.375000
v 32.223625 109.076484 -12.187500
v 48.141018 89.744861 4.875000
v 52.058201 97.393588 4.875000
v 55.869324 105.298896 4.875000
v 57.122009 104.273368 -0.000000
v 55.869324 105.298896 -4.875000
v 52.058201 97.393588 -4.875000
v 48.141018 89.744861 -4.875000
v 49.277977 88.364032 -0.000000
v 34.971733 58.232807 -5.167500
v 36.651093 56.636117 -0.000000
v 34.971733 58.232807 5.167500
v 37.557632 66.425145 4.948125
v 40.720085 74.383326 4.875000
v 41.783340 72.605749 -0.000000
v 40.720085 74.383325 -4.875000
v 37.557632 66.425145 -4.948125
v 11.693798 102.787734 11.667500
v 16.004051 106.398479 11.448125
v 19.454948 109.934852 11.375000
v 25.834488 99.269393 12.187500
v 32.214031 88.603938 11.375000
v 28.759695 82.241367 11.448125
v 24.954544 75.362319 11.667500
v 18.310123 89.186738 12.333750
v 19.454948 109.934852 -11.375000
v 16.004051 106.398479 -11.448125
v 11.693797 102.787734 -11.667500
v 18.310123 89.186738 -12.333750
v 24.954544 75.362319 -11.667500
v 28.759695 82.241365 -11.448125
v 32.214027 88.603935 -11.375000
v 25.834488 99.269393 -12.187500
v -7.148551 -179.253785 4.243055
v 0.000000 -180.289521 4.559028
v 7.148551 -179.253785 4.243055
v 7.680890 -180.289521 0.000000
v 7.148551 -179.253785 -4.243055
v 0.000000 -180.289521 -4.559028
v -7.148551 -179.253785 -4.243055
v -7.680890 -180.289536 0.000000
v 16.730652 -171.097230 4.243055
v 18.555815 -163.733277 4.717014
v 19.164202 -153.811463 4.875000
v 20.533073 -153.811463 0.000000
v 19.164202 -153.811463 -4.875000
v 18.555815 -163.733277 -4.717014
v 16.730652 -171.097230 -4.243055
v 17.947426 -171.550385 0.000000
v -11.693798 102.787734 -11.667500
v -16.004051 106.398479 -11.448125
v -19.454948 109.934852 -11.375000
v -25.834488 99.269393 -12.187500
v -32.214031 88.603938 -11.375000
v -28.759695 82.241367 -11.448125
v -24.954544 75.362319 -11.667500
v -18.310123 89.186738 -12.333750
v -35.580925 43.130467 5.167500
v -38.213757 36.799507 4.948125
v -40.298626 31.392476 4.875000
v -43.177097 31.392476 -0.000000
v -40.298622 31.392476 -4.875000
v -38.213757 36.799507 -4.948125
v -35.580925 43.130466 -5.167500
v -38.113956 42.531112 -0.000000
v -8.213229 -153.811463 11.375000
v 0.000000 -153.811463 12.187500
v 8.213229 -153.811448 11.375000
v 7.947060 -163.733277 11.013889
v 7.148551 -171.097230 9.930555
v 0.000000 -171.550385 10.652778
v -7.148551 -171.097230 9.930555
v -7.947060 -163.733277 11.013889
v -17.270840 31.392476 -11.375000
v 0.000000 31.392476 -12.187500
v 17.270840 31.392476 -11.375000
v 16.379440 36.945773 -11.448125
v 15.257432 43.715539 -11.667500
v 0.000000 43.408721 -12.333750
v -15.257432 43.715539 -11.667500
v -16.379440 36.945775 -11.448125
v -40.720085 74.383326 -4.875000
v -41.783340 72.605749 -0.000000
v -40.720085 74.383326 4.875000
v -37.557632 66.425145 4.948125
v -34.971733 58.232807 5.167500
v -36.651093 56.636117 -0.000000
v -34.971733 58.232807 -5.167500
v -37.557632 66.425145 -4.948125
v -19.454948 109.934852 11.375000
v -16.004051 106.398479 11.448125
v -11.693797 102.787734 11.667500
v -18.310123 89.186738 12.333750
v -24.954544 75.362319 11.667500
v -28.759695 82.241365 11.448125
v -32.214027 88.603937 11.375000
v -25.834488 99.269393 12.187500
v 10.486993 64.557592 -12.480000
v 6.098681 77.295404 -12.740000
v 0.000000 88.580722 -12.480000
v -6.098681 77.295404 -12.740000
v -10.486993 64.557593 -12.480000
v 0.000000 62.723872 -12.740000
v -10.486993 64.557593 12.480000
v -6.098681 77.295404 12.740000
v 0.000000 88.580722 12.480000
v 6.098681 77.295404 12.740000
v 10.486992 64.557593 12.480000
v 0.000000 62.723872 12.740000
v -12.094892 9.359992 -11.375000
v 0.000000 9.359992 -12.187500
v 12.094892 9.359996 -11.375000
v 14.294520 15.218047 -11.375000
v 16.235411 20.881400 -11.375000
v 0.000000 20.881400 -12.187500
v -16.235411 20.881404 -11.375000
v -14.294520 15.218047 -11.375000
v 35.580925 43.130466 5.167500
v 38.113956 42.531112 -0.000000
v 35.580925 43.130466 -5.167500
v 38.213757 36.799507 -4.948125
v 40.298626 31.392476 -4.875000
v 43.177097 31.392476 -0.000000
v 40.298622 31.392476 4.875000
v 38.213757 36.799507 4.948125
v -15.257432 43.715539 11.667500
v 0.000000 43.408721 12.333750
v 15.257431 43.715539 11.667500
v 16.379440 36.945773 11.448125
v 17.270840 31.392476 11.375000
v 0.000000 31.392476 12.187500
v -17.270840 31.392476 11.375000
v -16.379440 36.945775 11.448125
v -28.221413 9.359992 4.875000
v -30.237228 9.359992 -0.000000
v -28.221413 9.359996 -4.875000
v -33.353878 15.218047 -4.875000
v -37.882622 20.881400 -4.875000
v -40.588524 20.881400 -0.000000
v -37.882622 20.881404 4.875000
v -33.353878 15.218047 4.875000
v -8.213229 -15.209397 -11.375000
v 0.000000 -15.209397 -12.187500
v 8.213229 -15.209397 -11.375000
v 8.407312 -8.890473 -11.375000
v 8.989561 -2.708661 -11.375000
v 0.000000 -2.708657 -12.187500
v -8.989561 -2.708661 -11.375000
v -8.407312 -8.890473 -11.375000
v 37.882622 20.881404 4.875000
v 40.588524 20.881404 -0.000000
v 37.882622 20.881404 -4.875000
v 33.353878 15.218047 -4.875000
v 28.221413 9.359996 -4.875000
v 30.237228 9.360000 -0.000000
v 28.221413 9.359996 4.875000
v 33.353878 15.218047 4.875000
v -16.235411 20.881404 11.375000
v 0.000000 20.881404 12.187500
v 16.235411 20.881404 11.375000
v 14.294520 15.218047 11.375000
v 12.094892 9.359996 11.375000
v 0.000000 9.360000 12.187500
v -12.094892 9.359996 11.375000
v -14.294520 15.218047 11.375000
v -19.164202 -15.209397 4.875000
v -20.533073 -15.209397 0.000000
v -19.164202 -15.209397 -4.875000
v -19.617064 -8.890473 -4.875000
v -20.975643 -2.708661 -4.875000
v -22.473904 -2.708657 0.000000
v -20.975643 -2.708661 4.875000
v -19.617062 -8.890473 4.875000
v -8.213229 -42.253022 -11.375000
v 0.000000 -42.253022 -12.187500
v 8.213229 -42.253022 -11.375000
v 8.213229 -35.233552 -11.375000
v 8.213229 -28.374985 -11.375000
v 0.000000 -28.374993 -12.187500
v -8.213229 -28.374985 -11.375000
v -8.213229 -35.233552 -11.375000
v 20.975643 -2.708661 4.875000
v 22.473904 -2.708657 0.000000
v 20.975643 -2.708661 -4.875000
v 19.617064 -8.890473 -4.875000
v 19.164202 -15.209397 -4.875000
v 20.533073 -15.209397 0.000000
v 19.164202 -15.209397 4.875000
v 19.617062 -8.890473 4.875000
v -8.989561 -2.708661 11.375000
v 0.000000 -2.708657 12.187500
v 8.989561 -2.708661 11.375000
v 8.407312 -8.890473 11.375000
v 8.213229 -15.209397 11.375000
v 0.000000 -15.209397 12.187500
v -8.213229 -15.209397 11.375000
v -8.407312 -8.890473 11.375000
v -19.164202 -42.253022 4.875000
v -20.533073 -42.253022 0.000000
v -19.164202 -42.253022 -4.875000
v -19.164202 -35.233552 -4.875000
v -19.164202 -28.374985 -4.875000
v -20.533073 -28.374993 0.000000
v -19.164202 -28.374985 4.875000
v -19.164202 -35.233552 4.875000
v -8.213229 -73.877869 -11.375000
v 0.000000 -73.877869 -12.187500
v 8.213229 -73.877869 -11.375000
v 8.213229 -64.675370 -11.375000
v 8.213229 -56.705903 -11.375000
v 0.000000 -56.705903 -12.187500
v -8.213229 -56.705903 -11.375000
v -8.213229 -64.675370 -11.375000
v 19.164202 -28.374985 4.875000
v 20.533073 -28.374993 0.000000
v 19.164202 -28.374985 -4.875000
v 19.164202 -35.233552 -4.875000
v 19.164202 -42.253022 -4.875000
v 20.533073 -42.253022 0.000000
v 19.164202 -42.253022 4.875000
v 19.164202 -35.233552 4.875000
v -8.213229 -28.374985 11.375000
v 0.000000 -28.374993 12.187500
v 8.213229 -28.374985 11.375000
v 8.213229 -35.233552 11.375000
v 8.213229 -42.253022 11.375000
v 0.000000 -42.253022 12.187500
v -8.213229 -42.253022 11.375000
v -8.213229 -35.233552 11.375000
v -19.164202 -73.877869 4.875000
v -20.533073 -73.877869 0.000000
v -19.164202 -73.877869 -4.875000
v -19.164202 -64.675370 -4.875000
v -19.164202 -56.705903 -4.875000
v -20.533073 -56.705903 0.000000
v -19.164202 -56.705903 4.875000
v -19.164202 -64.675370 4.875000
v -8.213229 -127.651978 -11.375000
v 0.000000 -127.651978 -12.187500
v 8.213229 -127.651978 -11.375000
v 8.213229 -112.808381 -11.375000
v 8.213229 -98.195069 -11.375000
v 0.000000 -98.195069 -12.187500
v -8.213229 -98.195069 -11.375000
v -8.213229 -112.808381 -11.375000
v 19.164202 -56.705903 4.875000
v 20.533073 -56.705903 0.000000
v 19.164202 -56.705903 -4.875000
v 19.164202 -64.675370 -4.875000
v 19.164202 -73.877869 -4.875000
v 20.533073 -73.877869 0.000000
v 19.164202 -73.877869 4.875000
v 19.164202 -64.675370 4.875000
v -8.213229 -56.705903 11.375000
v 0.000000 -56.705903 12.187500
v 8.213229 -56.705903 11.375000
v 8.213229 -64.675370 11.375000
v 8.213229 -73.877869 11.375000
v 0.000000 -73.877869 12.187500
v -8.213229 -73.877869 11.375000
v -8.213229 -64.675370 11.375000
v -19.164202 -127.651978 4.875000
v -20.533073 -127.651978 0.000000
v -19.164202 -127.651978 -4.875000
v -19.164202 -112.808381 -4.875000
v -19.164202 -98.195069 -4.875000
v -20.533073 -98.195069 0.000000
v -19.164202 -98.195069 4.875000
v -19.164202 -112.808381 4.875000
v -7.148551 -171.097230 -9.930555
v 0.000000 -171.550385 -10.652778
v 7.148551 -171.097245 -9.930555
v 7.947060 -163.733277 -11.013889
v 8.213229 -153.811463 -11.375000
v 0.000000 -153.811463 -12.187500
v -8.213229 -153.811463 -11.375000
v -7.947060 -163.733277 -11.013889
v 19.164202 -98.195069 4.875000
v 20.533073 -98.195069 0.000000
v 19.164202 -98.195069 -4.875000
v 19.164202 -112.808381 -4.875000
v 19.164202 -127.651978 -4.875000
v 20.533073 -127.651978 0.000000
v 19.164202 -127.651963 4.875000
v 19.164202 -112.808381 4.875000
v -8.213229 -98.195069 11.375000
v 0.000000 -98.195069 12.187500
v 8.213229 -98.195069 11.375000
v 8.213229 -112.808381 11.375000
v 8.213229 -127.651978 11.375000
v 0.000000 -127.651978 12.187500
v -8.213229 -127.651978 11.375000
v -8.213229 -112.808381 11.375000
v -16.730652 -171.097230 4.243055
v -17.947428 -171.550385 0.000000
v -16.730652 -171.097245 -4.243055
v -18.555815 -163.733277 -4.717014
v -19.164202 -153.811463 -4.875000
v -20.533073 -153.811463 0.000000
v -19.164202 -153.811463 4.875000
v -18.555813 -163.733277 4.717014
# 1256 vertices

o Tube
usemtl default
f 315 629 318 2
f 629 630 81 318
f 80 636 629 315
f 636 79 630 629
f 317 631 320 6
f 631 632 82 320
f 81 630 631 317
f 630 79 632 631
f 319 633 322 5
f 633 634 83 322
f 82 632 633 319
f 632 79 634 633
f 321 635 316 1
f 635 636 80 316
f 83 634 635 321
f 634 79 636 635
f 323 637 326 3
f 637 638 86 326
f 85 644 637 323
f 644 84 638 637
f 325 639 328 7
f 639 640 87 328
f 86 638 639 325
f 638 84 640 639
f 327 641 317 6
f 641 642 81 317
f 87 640 641 327
f 640 84 642 641
f 318 643 324 2
f 643 644 85 324
f 81 642 643 318
f 642 84 644 643
f 329 645 332 4
f 645 646 90 332
f 89 652 645 329
f 652 88 646 645
f 331 647 334 8
f 647 648 91 334
f 90 646 647 331
f 646 88 648 647
f 333 649 325 7
f 649 650 86 325
f 91 648 649 333
f 648 88 650 649
f 326 651 330 3
f 651 652 89 330
f 86 650 651 326
f 650 88 652 651
f 335 653 321 1
f 653 654 83 321
f 93 660 653 335
f 660 92 654 653
f 322 655 338 5
f 655 656 94 338
f 83 654 655 322
f 654 92 656 655
f 337 657 331 8
f 657 658 90 331
f 94 656 657 337
f 656 92 658 657
f 332 659 336 4
f 659 660 93 336
f 90 658 659 332
f 658 92 660 659
f 320 661 340 6
f 661 662 96 340
f 82 668 661 320
f 668 95 662 661
f 339 663 342 10
f 663 664 97 342
f 96 662 663 339
f 662 95 664 663
f 341 665 344 9
f 665 666 98 344
f 97 664 665 341
f 664 95 666 665
f 343 667 319 5
f 667 668 82 319
f 98 666 667 343
f 666 95 668 667
f 328 669 346 7
f 669 670 100 346
f 87 676 669 328
f 676 99 670 669
f 345 671 348 11
f 671 672 101 348
f 100 670 671 345
f 670 99 672 671
f 347 673 339 10
f 673 674 96 339
f 101 672 673 347
f 672 99 674 673
f 340 675 327 6
f 675 676 87 327
f 96 674 675 340
f 674 99 676 675
f 334 677 350 8
f 677 678 103 350
f 91 684 677 334
f 684 102 678 677
f 349 679 352 12
f 679 680 104 352
f 103 678 679 349
f 678 102 680 679
f 351 681 345 11
f 681 682 100 345
f 104 680 681 351
f 680 102 682 681
f 346 683 333 7
f 683 684 91 333
f 100 682 683 346
f 682 102 684 683
f 338 685 343 5
f 685 686 98 343
f 94 692 685 338
f 692 105 686 685
f 344 687 354 9
f 687 688 106 354
f 98 686 687 344
f 686 105 688 687
f 353 689 349 12
f 689 690 103 349
f 106 688 689 353
f 688 105 690 689
f 350 691 337 8
f 691 692 94 337
f 103 690 691 350
f 690 105 692 691
f 342 693 356 10
f 693 694 108 356
f 97 700 693 342
f 700 107 694 693
f 355 695 358 14
f 695 696 109 358
f 108 694 695 355
f 694 107 696 695
f 357 697 360 13
f 697 698 110 360
f 109 696 697 357
f 696 107 698 697
f 359 699 341 9
f 699 700 97 341
f 110 698 699 359
f 698 107 700 699
f 348 701 362 11
f 701 702 112 362
f 101 708 701 348
f 708 111 702 701
f 361 703 364 15
f 703 704 113 364
f 112 702 703 361
f 702 111 704 703
f 363 705 355 14
f 705 706 108 355
f 113 704 705 363
f 704 111 706 705
f 356 707 347 10
f 707 708 101 347
f 108 706 707 356
f 706 111 708 707
f 352 709 366 12
f 709 710 115 366
f 104 716 709 352
f 716 114 710 709
f 365 711 368 16
f 711 712 116 368
f 115 710 711 365
f 710 114 712 711
f 367 713 361 15
f 713 714 112 361
f 116 712 713 367
f 712 114 714 713
f 362 715 351 11
f 715 716 104 351
f 112 714 715 362
f 714 114 716 715
f 354 717 359 9
f 717 718 110 359
f 106 724 717 354
f 724 117 718 717
f 360 719 370 13
f 719 720 118 370
f 110 718 719 360
f 718 117 720 719
f 369 721 365 16
f 721 722 115 365
f 118 720 721 369
f 720 117 722 721
f 366 723 353 12
f 723 724 106 353
f 115 722 723 366
f 722 117 724 723
f 358 725 372 14
f 725 726 120 372
f 109 732 725 358
f 732 119 726 725
f 371 727 374 18
f 727 728 121 374
f 120 726 727 371
f 726 119 728 727
f 373 729 376 17
f 729 730 122 376
f 121 728 729 373
f 728 119 730 729
f 375 731 357 13
f 731 732 109 357
f 122 730 731 375
f 730 119 732 731
f 364 733 378 15
f 733 734 124 378
f 113 740 733 364
f 740 123 734 733
f 377 735 380 19
f 735 736 125 380
f 124 734 735 377
f 734 123 736 735
f 379 737 371 18
f 737 738 120 371
f 125 736 737 379
f 736 123 738 737
f 372 739 363 14
f 739 740 113 363
f 120 738 739 372
f 738 123 740 739
f 368 741 382 16
f 741 742 127 382
f 116 748 741 368
f 748 126 742 741
f 381 743 384 20
f 743 744 128 384
f 127 742 743 381
f 742 126 744 743
f 383 745 377 19
f 745 746 124 377
f 128 744 745 383
f 744 126 746 745
f 378 747 367 15
f 747 748 116 367
f 124 746 747 378
f 746 126 748 747
f 370 749 375 13
f 749 750 122 375
f 118 756 749 370
f 756 129 750 749
f 376 751 386 17
f 751 752 130 386
f 122 750 751 376
f 750 129 752 751
f 385 753 381 20
f 753 754 127 381
f 130 752 753 385
f 752 129 754 753
f 382 755 369 16
f 755 756 118 369
f 127 754 755 382
f 754 129 756 755
f 374 757 388 18
f 757 758 132 388
f 121 764 757 374
f 764 131 758 757
f 387 759 390 22
f 759 760 133 390
f 132 758 759 387
f 758 131 760 759
f 389 761 392 21
f 761 762 134 392
f 133 760 761 389
f 760 131 762 761
f 391 763 373 17
f 763 764 121 373
f 134 762 763 391
f 762 131 764 763
f 380 765 394 19
f 765 766 136 394
f 125 772 765 380
f 772 135 766 765
f 393 767 396 23
f 767 768 137 396
f 136 766 767 393
f 766 135 768 767
f 395 769 387 22
f 769 770 132 387
f 137 768 769 395
f 768 135 770 769
f 388 771 379 18
f 771 772 125 379
f 132 770 771 388
f 770 135 772 771
f 384 773 398 20
f 773 774 139 398
f 128 780 773 384
f 780 138 774 773
f 397 775 400 24
f 775 776 140 400
f 139 774 775 397
f 774 138 776 775
f 399 777 393 23
f 777 778 136 393
f 140 776 777 399
f 776 138 778 777
f 394 779 383 19
f 779 780 128 383
f 136 778 779 394
f 778 138 780 779
f 386 781 391 17
f 781 782 134 391
f 130 788 781 386
f 788 141 782 781
f 392 783 402 21
f 783 784 142 402
f 134 782 783 392
f 782 141 784 783
f 401 785 397 24
f 785 786 139 397
f 142 784 785 401
f 784 141 786 785
f 398 787 385 20
f 787 788 130 385
f 139 786 787 398
f 786 141 788 787
f 390 789 404 22
f 789 790 144 404
f 133 796 789 390
f 796 143 790 789
f 403 791 406 26
f 791 792 145 406
f 144 790 791 403
f 790 143 792 791
f 405 793 408 25
f 793 794 146 408
f 145 792 793 405
f 792 143 794 793
f 407 795 389 21
f 795 796 133 389
f 146 794 795 407
f 794 143 796 795
f 396 797 410 23
f 797 798 148 410
f 137 804 797 396
f 804 147 798 797
f 409 799 412 27
f 799 800 149 412
f 148 798 799 409
f 798 147 800 799
f 411 801 403 26
f 801 802 144 403
f 149 800 801 411
f 800 147 802 801
f 404 803 395 22
f 803 804 137 395
f 144 802 803 404
f 802 147 804 803
f 400 805 414 24
f 805 806 151 414
f 140 812 805 400
f 812 150 806 805
f 413 807 416 28
f 807 808 152 416
f 151 806 807 413
f 806 150 808 807
f 415 809 409 27
f 809 810 148 409
f 152 808 809 415
f 808 150 810 809
f 410 811 399 23
f 811 812 140 399
f 148 810 811 410
f 810 150 812 811
f 402 813 407 21
f 813 814 146 407
f 142 820 813 402
f 820 153 814 813
f 408 815 418 25
f 815 816 154 418
f 146 814 815 408
f 814 153 816 815
f 417 817 413 28
f 817 818 151 413
f 154 816 817 417
f 816 153 818 817
f 414 819 401 24
f 819 820 142 401
f 151 818 819 414
f 818 153 820 819
f 406 821 420 26
f 821 822 156 420
f 145 828 821 406
f 828 155 822 821
f 419 823 422 30
f 823 824 157 422
f 156 822 823 419
f 822 155 824 823
f 421 825 424 29
f 825 826 158 424
f 157 824 825 421
f 824 155 826 825
f 423 827 405 25
f 827 828 145 405
f 158 826 827 423
f 826 155 828 827
f 412 829 426 27
f 829 830 160 426
f 149 836 829 412
f 836 159 830 829
f 425 831 428 31
f 831 832 161 428
f 160 830 831 425
f 830 159 832 831
f 427 833 419 30
f 833 834 156 419
f 161 832 833 427
f 832 159 834 833
f 420 835 411 26
f 835 836 149 411
f 156 834 835 420
f 834 159 836 835
f 416 837 430 28
f 837 838 163 430
f 152 844 837 416
f 844 162 838 837
f 429 839 432 32
f 839 840 164 432
f 163 838 839 429
f 838 162 840 839
f 431 841 425 31
f 841 842 160 425
f 164 840 841 431
f 840 162 842 841
f 426 843 415 27
f 843 844 152 415
f 160 842 843 426
f 842 162 844 843
f 418 845 423 25
f 845 846 158 423
f 154 852 845 418
f 852 165 846 845
f 424 847 434 29
f 847 848 166 434
f 158 846 847 424
f 846 165 848 847
f 433 849 429 32
f 849 850 163 429
f 166 848 849 433
f 848 165 850 849
f 430 851 417 28
f 851 852 154 417
f 163 850 851 430
f 850 165 852 851
f 422 853 436 30
f 853 854 168 436
f 157 860 853 422
f 860 167 854 853
f 435 855 438 35
f 855 856 169 438
f 168 854 855 435
f 854 167 856 855
f 437 857 440 33
f 857 858 170 440
f 169 856 857 437
f 856 167 858 857
f 439 859 421 29
f 859 860 157 421
f 170 858 859 439
f 858 167 860 859
f 428 861 442 31
f 861 862 172 442
f 161 868 861 428
f 868 171 862 861
f 441 863 444 37
f 863 864 173 444
f 172 862 863 441
f 862 171 864 863
f 443 865 435 35
f 865 866 168 435
f 173 864 865 443
f 864 171 866 865
f 436 867 427 30
f 867 868 161 427
f 168 866 867 436
f 866 171 868 867
f 432 869 446 32
f 869 870 175 446
f 164 876 869 432
f 876 174 870 869
f 445 871 448 36
f 871 872 176 448
f 175 870 871 445
f 870 174 872 871
f 447 873 441 37
f 873 874 172 441
f 176 872 873 447
f 872 174 874 873
f 442 875 431 31
f 875 876 164 431
f 172 874 875 442
f 874 174 876 875
f 434 877 439 29
f 877 878 170 439
f 166 884 877 434
f 884 177 878 877
f 440 879 450 33
f 879 880 178 450
f 170 878 879 440
f 878 177 880 879
f 449 881 445 36
f 881 882 175 445
f 178 880 881 449
f 880 177 882 881
f 446 883 433 32
f 883 884 166 433
f 175 882 883 446
f 882 177 884 883
f 451 885 454 39
f 885 886 181 454
f 180 892 885 451
f 892 179 886 885
f 453 887 323 3
f 887 888 85 323
f 181 886 887 453
f 886 179 888 887
f 324 889 456 2
f 889 890 182 456
f 85 888 889 324
f 888 179 890 889
f 455 891 452 46
f 891 892 180 452
f 182 890 891 455
f 890 179 892 891
f 457 893 460 45
f 893 894 185 460
f 184 900 893 457
f 900 183 894 893
f 459 895 335 1
f 895 896 93 335
f 185 894 895 459
f 894 183 896 895
f 336 897 462 4
f 897 898 186 462
f 93 896 897 336
f 896 183 898 897
f 461 899 458 38
f 899 900 184 458
f 186 898 899 461
f 898 183 900 899
f 463 901 455 46
f 901 902 182 455
f 188 908 901 463
f 908 187 902 901
f 456 903 315 2
f 903 904 80 315
f 182 902 903 456
f 902 187 904 903
f 316 905 459 1
f 905 906 185 459
f 80 904 905 316
f 904 187 906 905
f 460 907 464 45
f 907 908 188 464
f 185 906 907 460
f 906 187 908 907
f 450 909 466 33
f 909 910 190 466
f 178 916 909 450
f 916 189 910 909
f 465 911 468 34
f 911 912 191 468
f 190 910 911 465
f 910 189 912 911
f 467 913 470 40
f 913 914 192 470
f 191 912 913 467
f 912 189 914 913
f 469 915 449 36
f 915 916 178 449
f 192 914 915 469
f 914 189 916 915
f 471 917 474 41
f 917 918 195 474
f 194 924 917 471
f 924 193 918 917
f 473 919 457 45
f 919 920 184 457
f 195 918 919 473
f 918 193 920 919
f 458 921 476 38
f 921 922 196 476
f 184 920 921 458
f 920 193 922 921
f 475 923 472 44
f 923 924 194 472
f 196 922 923 475
f 922 193 924 923
f 477 925 461 38
f 925 926 186 461
f 198 932 925 477
f 932 197 926 925
f 462 927 329 4
f 927 928 89 329
f 186 926 927 462
f 926 197 928 927
f 330 929 453 3
f 929 930 181 453
f 89 928 929 330
f 928 197 930 929
f 454 931 478 39
f 931 932 198 478
f 181 930 931 454
f 930 197 932 931
f 479 933 475 44
f 933 934 196 475
f 200 940 933 479
f 940 199 934 933
f 476 935 477 38
f 935 936 198 477
f 196 934 935 476
f 934 199 936 935
f 478 937 482 39
f 937 938 201 482
f 198 936 937 478
f 936 199 938 937
f 481 939 480 43
f 939 940 200 480
f 201 938 939 481
f 938 199 940 939
f 468 941 484 34
f 941 942 203 484
f 191 948 941 468
f 948 202 942 941
f 483 943 471 41
f 943 944 194 471
f 203 942 943 483
f 942 202 944 943
f 472 945 486 44
f 945 946 204 486
f 194 944 945 472
f 944 202 946 945
f 485 947 467 40
f 947 948 191 467
f 204 946 947 485
f 946 202 948 947
f 487 949 490 42
f 949 950 207 490
f 206 956 949 487
f 956 205 950 949
f 489 951 463 46
f 951 952 188 463
f 207 950 951 489
f 950 205 952 951
f 464 953 473 45
f 953 954 195 473
f 188 952 953 464
f 952 205 954 953
f 474 955 488 41
f 955 956 206 488
f 195 954 955 474
f 954 205 956 955
f 491 957 481 43
f 957 958 201 481
f 209 964 957 491
f 964 208 958 957
f 482 959 451 39
f 959 960 180 451
f 201 958 959 482
f 958 208 960 959
f 452 961 489 46
f 961 962 207 489
f 180 960 961 452
f 960 208 962 961
f 490 963 492 42
f 963 964 209 492
f 207 962 963 490
f 962 208 964 963
f 493 965 496 48
f 965 966 212 496
f 211 972 965 493
f 972 210 966 965
f 495 967 498 50
f 967 968 213 498
f 212 966 967 495
f 966 210 968 967
f 497 969 491 43
f 969 970 209 491
f 213 968 969 497
f 968 210 970 969
f 492 971 494 42
f 971 972 211 494
f 209 970 971 492
f 970 210 972 971
f 499 973 485 40
f 973 974 204 485
f 215 980 973 499
f 980 214 974 973
f 486 975 479 44
f 975 976 200 479
f 204 974 975 486
f 974 214 976 975
f 480 977 497 43
f 977 978 213 497
f 200 976 977 480
f 976 214 978 977
f 498 979 500 50
f 979 980 215 500
f 213 978 979 498
f 978 214 980 979
f 488 981 483 41
f 981 982 203 483
f 206 988 981 488
f 988 216 982 981
f 484 983 502 34
f 983 984 217 502
f 203 982 983 484
f 982 216 984 983
f 501 985 493 48
f 985 986 211 493
f 217 984 985 501
f 984 216 986 985
f 494 987 487 42
f 987 988 206 487
f 211 986 987 494
f 986 216 988 987
f 503 989 506 54
f 989 990 220 506
f 219 996 989 503
f 996 218 990 989
f 505 991 508 51
f 991 992 221 508
f 220 990 991 505
f 990 218 992 991
f 507 993 510 52
f 993 994 222 510
f 221 992 993 507
f 992 218 994 993
f 509 995 504 53
f 995 996 219 504
f 222 994 995 509
f 994 218 996 995
f 508 997 512 51
f 997 998 224 512
f 221 1004 997 508
f 1004 223 998 997
f 511 999 514 77
f 999 1000 225 514
f 224 998 999 511
f 998 223 1000 999
f 513 1001 516 76
f 1001 1002 226 516
f 225 1000 1001 513
f 1000 223 1002 1001
f 515 1003 507 52
f 1003 1004 221 507
f 226 1002 1003 515
f 1002 223 1004 1003
f 517 1005 465 34
f 1005 1006 190 465
f 228 1012 1005 517
f 1012 227 1006 1005
f 466 1007 437 33
f 1007 1008 169 437
f 190 1006 1007 466
f 1006 227 1008 1007
f 438 1009 520 35
f 1009 1010 229 520
f 169 1008 1009 438
f 1008 227 1010 1009
f 519 1011 518 49
f 1011 1012 228 518
f 229 1010 1011 519
f 1010 227 1012 1011
f 521 1013 524 47
f 1013 1014 232 524
f 231 1020 1013 521
f 1020 230 1014 1013
f 523 1015 526 58
f 1015 1016 233 526
f 232 1014 1015 523
f 1014 230 1016 1015
f 525 1017 528 55
f 1017 1018 234 528
f 233 1016 1017 525
f 1016 230 1018 1017
f 527 1019 522 49
f 1019 1020 231 522
f 234 1018 1019 527
f 1018 230 1020 1019
f 529 1021 532 78
f 1021 1022 237 532
f 236 1028 1021 529
f 1028 235 1022 1021
f 531 1023 511 77
f 1023 1024 224 511
f 237 1022 1023 531
f 1022 235 1024 1023
f 512 1025 505 51
f 1025 1026 220 505
f 224 1024 1025 512
f 1024 235 1026 1025
f 506 1027 530 54
f 1027 1028 236 530
f 220 1026 1027 506
f 1026 235 1028 1027
f 528 1029 534 55
f 1029 1030 239 534
f 234 1036 1029 528
f 1036 238 1030 1029
f 533 1031 536 56
f 1031 1032 240 536
f 239 1030 1031 533
f 1030 238 1032 1031
f 535 1033 538 48
f 1033 1034 241 538
f 240 1032 1033 535
f 1032 238 1034 1033
f 537 1035 527 49
f 1035 1036 234 527
f 241 1034 1035 537
f 1034 238 1036 1035
f 520 1037 443 35
f 1037 1038 173 443
f 229 1044 1037 520
f 1044 242 1038 1037
f 444 1039 540 37
f 1039 1040 243 540
f 173 1038 1039 444
f 1038 242 1040 1039
f 539 1041 521 47
f 1041 1042 231 521
f 243 1040 1041 539
f 1040 242 1042 1041
f 522 1043 519 49
f 1043 1044 229 519
f 231 1042 1043 522
f 1042 242 1044 1043
f 448 1045 469 36
f 1045 1046 192 469
f 176 1052 1045 448
f 1052 244 1046 1045
f 470 1047 542 40
f 1047 1048 245 542
f 192 1046 1047 470
f 1046 244 1048 1047
f 541 1049 539 47
f 1049 1050 243 539
f 245 1048 1049 541
f 1048 244 1050 1049
f 540 1051 447 37
f 1051 1052 176 447
f 243 1050 1051 540
f 1050 244 1052 1051
f 538 1053 501 48
f 1053 1054 217 501
f 241 1058 1053 538
f 1058 246 1054 1053
f 502 1055 517 34
f 1055 1056 228 517
f 217 1054 1055 502
f 1054 246 1056 1055
f 518 1057 537 49
f 1057 1058 241 537
f 228 1056 1057 518
f 1056 246 1058 1057
f 543 1059 541 47
f 1059 1060 245 541
f 248 1064 1059 543
f 1064 247 1060 1059
f 542 1061 499 40
f 1061 1062 215 499
f 245 1060 1061 542
f 1060 247 1062 1061
f 500 1063 544 50
f 1063 1064 248 544
f 215 1062 1063 500
f 1062 247 1064 1063
f 545 1065 548 59
f 1065 1066 251 548
f 250 1072 1065 545
f 1072 249 1066 1065
f 547 1067 550 60
f 1067 1068 252 550
f 251 1066 1067 547
f 1066 249 1068 1067
f 549 1069 533 56
f 1069 1070 239 533
f 252 1068 1069 549
f 1068 249 1070 1069
f 534 1071 546 55
f 1071 1072 250 546
f 239 1070 1071 534
f 1070 249 1072 1071
f 551 1073 495 50
f 1073 1074 212 495
f 254 1080 1073 551
f 1080 253 1074 1073
f 496 1075 535 48
f 1075 1076 240 535
f 212 1074 1075 496
f 1074 253 1076 1075
f 536 1077 554 56
f 1077 1078 255 554
f 240 1076 1077 536
f 1076 253 1078 1077
f 553 1079 552 57
f 1079 1080 254 552
f 255 1078 1079 553
f 1078 253 1080 1079
f 524 1081 543 47
f 1081 1082 248 543
f 232 1088 1081 524
f 1088 256 1082 1081
f 544 1083 551 50
f 1083 1084 254 551
f 248 1082 1083 544
f 1082 256 1084 1083
f 552 1085 556 57
f 1085 1086 257 556
f 254 1084 1085 552
f 1084 256 1086 1085
f 555 1087 523 58
f 1087 1088 232 523
f 257 1086 1087 555
f 1086 256 1088 1087
f 557 1089 560 62
f 1089 1090 260 560
f 259 1096 1089 557
f 1096 258 1090 1089
f 559 1091 545 59
f 1091 1092 250 545
f 260 1090 1091 559
f 1090 258 1092 1091
f 546 1093 525 55
f 1093 1094 233 525
f 250 1092 1093 546
f 1092 258 1094 1093
f 526 1095 558 58
f 1095 1096 259 558
f 233 1094 1095 526
f 1094 258 1096 1095
f 561 1097 564 63
f 1097 1098 263 564
f 262 1104 1097 561
f 1104 261 1098 1097
f 563 1099 566 64
f 1099 1100 264 566
f 263 1098 1099 563
f 1098 261 1100 1099
f 565 1101 547 60
f 1101 1102 251 547
f 264 1100 1101 565
f 1100 261 1102 1101
f 548 1103 562 59
f 1103 1104 262 562
f 251 1102 1103 548
f 1102 261 1104 1103
f 567 1105 553 57
f 1105 1106 255 553
f 266 1112 1105 567
f 1112 265 1106 1105
f 554 1107 549 56
f 1107 1108 252 549
f 255 1106 1107 554
f 1106 265 1108 1107
f 550 1109 570 60
f 1109 1110 267 570
f 252 1108 1109 550
f 1108 265 1110 1109
f 569 1111 568 61
f 1111 1112 266 568
f 267 1110 1111 569
f 1110 265 1112 1111
f 558 1113 555 58
f 1113 1114 257 555
f 259 1120 1113 558
f 1120 268 1114 1113
f 556 1115 567 57
f 1115 1116 266 567
f 257 1114 1115 556
f 1114 268 1116 1115
f 568 1117 572 61
f 1117 1118 269 572
f 266 1116 1117 568
f 1116 268 1118 1117
f 571 1119 557 62
f 1119 1120 259 557
f 269 1118 1119 571
f 1118 268 1120 1119
f 573 1121 576 66
f 1121 1122 272 576
f 271 1128 1121 573
f 1128 270 1122 1121
f 575 1123 561 63
f 1123 1124 262 561
f 272 1122 1123 575
f 1122 270 1124 1123
f 562 1125 559 59
f 1125 1126 260 559
f 262 1124 1125 562
f 1124 270 1126 1125
f 560 1127 574 62
f 1127 1128 271 574
f 260 1126 1127 560
f 1126 270 1128 1127
f 577 1129 580 67
f 1129 1130 275 580
f 274 1136 1129 577
f 1136 273 1130 1129
f 579 1131 582 68
f 1131 1132 276 582
f 275 1130 1131 579
f 1130 273 1132 1131
f 581 1133 563 64
f 1133 1134 263 563
f 276 1132 1133 581
f 1132 273 1134 1133
f 564 1135 578 63
f 1135 1136 274 578
f 263 1134 1135 564
f 1134 273 1136 1135
f 583 1137 569 61
f 1137 1138 267 569
f 278 1144 1137 583
f 1144 277 1138 1137
f 570 1139 565 60
f 1139 1140 264 565
f 267 1138 1139 570
f 1138 277 1140 1139
f 566 1141 586 64
f 1141 1142 279 586
f 264 1140 1141 566
f 1140 277 1142 1141
f 585 1143 584 65
f 1143 1144 278 584
f 279 1142 1143 585
f 1142 277 1144 1143
f 574 1145 571 62
f 1145 1146 269 571
f 271 1152 1145 574
f 1152 280 1146 1145
f 572 1147 583 61
f 1147 1148 278 583
f 269 1146 1147 572
f 1146 280 1148 1147
f 584 1149 588 65
f 1149 1150 281 588
f 278 1148 1149 584
f 1148 280 1150 1149
f 587 1151 573 66
f 1151 1152 271 573
f 281 1150 1151 587
f 1150 280 1152 1151
f 589 1153 592 70
f 1153 1154 284 592
f 283 1160 1153 589
f 1160 282 1154 1153
f 591 1155 577 67
f 1155 1156 274 577
f 284 1154 1155 591
f 1154 282 1156 1155
f 578 1157 575 63
f 1157 1158 272 575
f 274 1156 1157 578
f 1156 282 1158 1157
f 576 1159 590 66
f 1159 1160 283 590
f 272 1158 1159 576
f 1158 282 1160 1159
f 593 1161 596 71
f 1161 1162 287 596
f 286 1168 1161 593
f 1168 285 1162 1161
f 595 1163 598 72
f 1163 1164 288 598
f 287 1162 1163 595
f 1162 285 1164 1163
f 597 1165 579 68
f 1165 1166 275 579
f 288 1164 1165 597
f 1164 285 1166 1165
f 580 1167 594 67
f 1167 1168 286 594
f 275 1166 1167 580
f 1166 285 1168 1167
f 599 1169 585 65
f 1169 1170 279 585
f 290 1176 1169 599
f 1176 289 1170 1169
f 586 1171 581 64
f 1171 1172 276 581
f 279 1170 1171 586
f 1170 289 1172 1171
f 582 1173 602 68
f 1173 1174 291 602
f 276 1172 1173 582
f 1172 289 1174 1173
f 601 1175 600 69
f 1175 1176 290 600
f 291 1174 1175 601
f 1174 289 1176 1175
f 590 1177 587 66
f 1177 1178 281 587
f 283 1184 1177 590
f 1184 292 1178 1177
f 588 1179 599 65
f 1179 1180 290 599
f 281 1178 1179 588
f 1178 292 1180 1179
f 600 1181 604 69
f 1181 1182 293 604
f 290 1180 1181 600
f 1180 292 1182 1181
f 603 1183 589 70
f 1183 1184 283 589
f 293 1182 1183 603
f 1182 292 1184 1183
f 605 1185 608 74
f 1185 1186 296 608
f 295 1192 1185 605
f 1192 294 1186 1185
f 607 1187 593 71
f 1187 1188 286 593
f 296 1186 1187 607
f 1186 294 1188 1187
f 594 1189 591 67
f 1189 1190 284 591
f 286 1188 1189 594
f 1188 294 1190 1189
f 592 1191 606 70
f 1191 1192 295 606
f 284 1190 1191 592
f 1190 294 1192 1191
f 609 1193 612 75
f 1193 1194 299 612
f 298 1200 1193 609
f 1200 297 1194 1193
f 611 1195 614 76
f 1195 1196 300 614
f 299 1194 1195 611
f 1194 297 1196 1195
f 613 1197 595 72
f 1197 1198 287 595
f 300 1196 1197 613
f 1196 297 1198 1197
f 596 1199 610 71
f 1199 1200 298 610
f 287 1198 1199 596
f 1198 297 1200 1199
f 615 1201 601 69
f 1201 1202 291 601
f 302 1208 1201 615
f 1208 301 1202 1201
f 602 1203 597 68
f 1203 1204 288 597
f 291 1202 1203 602
f 1202 301 1204 1203
f 598 1205 618 72
f 1205 1206 303 618
f 288 1204 1205 598
f 1204 301 1206 1205
f 617 1207 616 73
f 1207 1208 302 616
f 303 1206 1207 617
f 1206 301 1208 1207
f 606 1209 603 70
f 1209 1210 293 603
f 295 1216 1209 606
f 1216 304 1210 1209
f 604 1211 615 69
f 1211 1212 302 615
f 293 1210 1211 604
f 1210 304 1212 1211
f 616 1213 620 73
f 1213 1214 305 620
f 302 1212 1213 616
f 1212 304 1214 1213
f 619 1215 605 74
f 1215 1216 295 605
f 305 1214 1215 619
f 1214 304 1216 1215
f 621 1217 624 78
f 1217 1218 308 624
f 307 1224 1217 621
f 1224 306 1218 1217
f 623 1219 609 75
f 1219 1220 298 609
f 308 1218 1219 623
f 1218 306 1220 1219
f 610 1221 607 71
f 1221 1222 296 607
f 298 1220 1221 610
f 1220 306 1222 1221
f 608 1223 622 74
f 1223 1224 307 622
f 296 1222 1223 608
f 1222 306 1224 1223
f 625 1225 509 53
f 1225 1226 222 509
f 310 1232 1225 625
f 1232 309 1226 1225
f 510 1227 515 52
f 1227 1228 226 515
f 222 1226 1227 510
f 1226 309 1228 1227
f 516 1229 611 76
f 1229 1230 299 611
f 226 1228 1229 516
f 1228 309 1230 1229
f 612 1231 626 75
f 1231 1232 310 626
f 299 1230 1231 612
f 1230 309 1232 1231
f 627 1233 617 73
f 1233 1234 303 617
f 312 1240 1233 627
f 1240 311 1234 1233
f 618 1235 613 72
f 1235 1236 300 613
f 303 1234 1235 618
f 1234 311 1236 1235
f 614 1237 513 76
f 1237 1238 225 513
f 300 1236 1237 614
f 1236 311 1238 1237
f 514 1239 628 77
f 1239 1240 312 628
f 225 1238 1239 514
f 1238 311 1240 1239
f 622 1241 619 74
f 1241 1242 305 619
f 307 1248 1241 622
f 1248 313 1242 1241
f 620 1243 627 73
f 1243 1244 312 627
f 305 1242 1243 620
f 1242 313 1244 1243
f 628 1245 531 77
f 1245 1246 237 531
f 312 1244 1245 628
f 1244 313 1246 1245
f 532 1247 621 78
f 1247 1248 307 621
f 237 1246 1247 532
f 1246 313 1248 1247
f 530 1249 503 54
f 1249 1250 219 503
f 236 1256 1249 530
f 1256 314 1250 1249
f 504 1251 625 53
f 1251 1252 310 625
f 219 1250 1251 504
f 1250 314 1252 1251
f 626 1253 623 75
f 1253 1254 308 623
f 310 1252 1253 626
f 1252 314 1254 1253
f 624 1255 529 78
f 1255 1256 236 529
f 308 1254 1255 624
f 1254 314 1256 1255

