# WaveFront *.obj file (generated by Cinema 4D)

v 17.807113 152.201856 -14.124903
v 80.519000 152.231358 -14.124903
v 80.519000 152.231358 14.124903
v 17.807113 152.201856 14.124903
v 15.421413 162.440946 -14.124903
v 69.731499 198.529783 -14.124903
v 69.731499 198.529783 14.124903
v 15.421413 162.440946 14.124903
v 8.903557 169.936480 -14.124903
v 40.259500 232.422583 -14.124903
v 40.259500 232.422583 14.124903
v 8.903557 169.936480 14.124903
v 0.000000 172.680036 -14.124903
v 0.000000 244.828208 -14.124903
v 0.000000 244.828208 14.124903
v 0.000000 172.680036 14.124903
v -8.903557 169.936480 -14.124903
v -40.259500 232.422583 -14.124903
v -40.259500 232.422583 14.124903
v -8.903557 169.936480 14.124903
v -15.421413 162.440946 -14.124903
v -69.731499 198.529783 -14.124903
v -69.731499 198.529783 14.124903
v -15.421413 162.440946 14.124903
v -17.807113 152.201856 -14.124903
v -80.519000 152.231358 -14.124903
v -80.519000 152.231358 14.124903
v -17.807113 152.201856 14.124903
v -15.421413 141.962765 -14.124903
v -69.731499 105.932933 -14.124903
v -69.731499 105.932933 14.124903
v -15.421413 141.962765 14.124903
v -8.903557 134.467231 -14.124903
v 0.000000 131.723675 -14.124903
v -50.472522 72.040134 -14.124903
v -8.903557 134.467231 14.124903
v -50.472522 72.040134 14.124903
v 15.421413 141.962765 14.124903
v 69.731499 105.932933 14.124903
v 0.000000 131.723675 14.124903
v 8.903557 134.467231 -14.124903
v 50.472522 72.040134 -14.124903
v 50.472522 72.040134 14.124903
v 8.903557 134.467231 14.124903
v 15.421413 141.962765 -14.124903
v 69.731499 105.932933 -14.124903
v -46.772606 45.606737 14.124903
v 46.772606 45.606737 -14.124903
v -46.772606 45.606737 -14.124903
v 46.772606 45.606737 14.124903
v 31.093151 -183.655714 14.124903
v 31.093151 -183.655714 -14.124903
v -31.093151 -183.655714 -14.124903
v -31.093151 -183.655714 14.124903
v -55.025459 27.068347 -14.124903
v 55.025459 27.068347 -14.124903
v 55.025459 27.068347 14.124903
v -55.025459 27.068347 14.124903
v -31.093151 3.562447 -14.124903
v 31.093151 3.562447 -14.124903
v 31.093151 3.562447 14.124903
v -31.093151 3.562447 14.124903
v 31.093151 -146.368686 -14.124903
v -31.093151 -146.368686 -14.124903
v 31.093151 -146.368686 14.124903
v -31.093151 -146.368686 14.124903
v -31.093151 -49.099923 -14.124903
v 31.093151 -49.099923 -14.124903
v 31.093151 -49.099923 14.124903
v -31.093151 -49.099923 14.124903
v -31.093151 -100.007615 -14.124903
v 31.093151 -100.007615 -14.124903
v 31.093151 -100.007615 14.124903
v -31.093151 -100.007615 14.124903
# 74 vertices

o Tube
usemtl default
f 60 68 67 59
f 69 68 60 61
f 59 67 70 62
f 70 69 61 62
f 5 6 2 1
f 6 7 3 2
f 7 8 4 3
f 8 5 1 4
f 9 10 6 5
f 10 11 7 6
f 11 12 8 7
f 12 9 5 8
f 13 14 10 9
f 14 15 11 10
f 15 16 12 11
f 16 13 9 12
f 17 18 14 13
f 18 19 15 14
f 19 20 16 15
f 20 17 13 16
f 21 22 18 17
f 22 23 19 18
f 23 24 20 19
f 24 21 17 20
f 25 26 22 21
f 26 27 23 22
f 27 28 24 23
f 28 25 21 24
f 29 30 26 25
f 30 31 27 26
f 31 32 28 27
f 32 29 25 28
f 33 35 30 29
f 35 37 31 30
f 37 36 32 31
f 36 33 29 32
f 2 3 39 46
f 4 1 45 38
f 1 2 46 45
f 40 34 33 36
f 38 45 41 44
f 3 4 38 39
f 39 38 44 43
f 44 41 34 40
f 45 46 42 41
f 46 39 43 42
f 43 50 48 42
f 43 44 40 50
f 48 34 41 42
f 52 51 54 53
f 63 65 51 52
f 35 33 34 49
f 55 58 47 49
f 51 65 66 54
f 48 56 55 49
f 47 37 35 49
f 47 40 36 37
f 34 48 49
f 40 47 50
f 56 60 59 55
f 56 48 50 57
f 57 50 47 58
f 55 59 62 58
f 60 56 57 61
f 61 57 58 62
f 64 53 54 66
f 65 73 74 66
f 68 72 71 67
f 63 72 73 65
f 63 52 53 64
f 67 71 74 70
f 72 63 64 71
f 72 68 69 73
f 73 69 70 74
f 71 64 66 74

