# WaveFront *.obj file (generated by Cinema 4D)

v -0.714754 -0.192429 -0.989707
v -0.533977 -0.207482 -1.938918
v -0.529750 -0.207834 -2.872041
v 0.263875 -0.273919 -2.888129
v 0.323779 -0.278908 -1.963050
v 0.479818 -0.291901 -0.909265
v 1.610133 -0.386022 -0.925353
v 2.532021 -0.462788 -0.997751
v 2.652267 -0.472801 -0.338130
v 1.666248 -0.390695 -0.193335
v 0.728327 -0.312594 0.249094
v 1.209312 -0.352646 1.109335
v 1.810543 -0.402710 2.284267
v 1.242123 -0.355378 2.536321
v 0.463277 -0.290523 1.538459
v -0.176490 -0.237250 0.791808
v -0.864934 -0.179923 1.224447
v -1.386643 -0.136481 2.194027
v -2.019136 -0.083813 1.936578
v -1.615965 -0.117385 0.966259
v -1.157002 -0.155603 0.087025
v -1.727228 -0.108120 -0.373527
v -2.679857 -0.028795 -0.511149
v -2.613250 -0.034341 -1.038336
v -1.546425 -0.123175 -1.131080
v -0.611352 1.049328 -0.989707
v -0.430576 1.034275 -1.938918
v -0.426349 1.033923 -2.872041
v 0.367277 0.967838 -2.888129
v 0.427181 0.962849 -1.963050
v 0.583219 0.949856 -0.909265
v 1.713534 0.855735 -0.925353
v 2.635422 0.778969 -0.997751
v 2.755668 0.768956 -0.338130
v 1.769649 0.851062 -0.193335
v 0.831728 0.929163 0.249094
v 1.312713 0.889111 1.109335
v 1.913944 0.839047 2.284267
v 1.345524 0.886379 2.536321
v 0.566678 0.951233 1.538459
v -0.073089 1.004507 0.791808
v -0.761533 1.061834 1.224447
v -1.283242 1.105276 2.194027
v -1.915735 1.157944 1.936578
v -1.512563 1.124372 0.966259
v -1.053600 1.086154 0.087025
v -1.623827 1.133637 -0.373527
v -2.576456 1.212962 -0.511149
v -2.509848 1.207416 -1.038336
v -1.443024 1.118581 -1.131080
# 50 vertices

o Extrude.1
usemtl default
f 31 26 46 41 36
f 26 27 2 1
f 27 28 3 2
f 28 29 4 3
f 29 30 5 4
f 30 31 6 5
f 31 32 7 6
f 32 33 8 7
f 33 34 9 8
f 34 35 10 9
f 35 36 11 10
f 36 37 12 11
f 37 38 13 12
f 38 39 14 13
f 39 40 15 14
f 40 41 16 15
f 41 42 17 16
f 42 43 18 17
f 43 44 19 18
f 44 45 20 19
f 45 46 21 20
f 46 47 22 21
f 47 48 23 22
f 48 49 24 23
f 49 50 25 24
f 50 26 1 25
f 3 4 5 2
f 9 10 7 8
f 5 6 1 2
f 21 1 6 11 16
f 7 10 11 6
f 25 1 21 22
f 13 14 15 12
f 12 15 16 11
f 19 20 17 18
f 23 24 25 22
f 20 21 16 17
f 45 42 41 46
f 28 27 30 29
f 34 33 32 35
f 30 27 26 31
f 32 31 36 35
f 50 47 46 26
f 38 37 40 39
f 37 36 41 40
f 44 43 42 45
f 48 47 50 49

